<svg width="303" height="169" viewBox="0 0 303 169" fill="none" xmlns="http://www.w3.org/2000/svg">
<rect width="285.485" height="152.672" transform="translate(8.75714 8.16406)" fill="#C82D0B"/>
<path d="M40.3371 44.1641H26.1771V30.5241H40.2771C43.3571 30.5241 44.5171 31.7841 44.5171 33.9241C44.4971 35.4641 43.7371 36.5841 42.2371 37.0241C44.0971 37.4041 45.0371 38.5841 45.0371 40.5441C45.0371 43.0241 43.6371 44.1641 40.3371 44.1641ZM39.6771 32.4241H28.5771V36.4041H39.8971C41.2171 36.4041 42.2371 35.8041 42.2371 34.4041C42.2371 33.0441 41.4971 32.4241 39.6771 32.4241ZM40.1171 38.1841H28.5771V42.4041H39.9171C41.9371 42.4041 42.7371 41.8641 42.7371 40.2841C42.7371 38.7241 41.7571 38.1841 40.1171 38.1841ZM48.5248 40.8641V44.1641H46.1648V40.8641H48.5248ZM67.4532 40.5441C67.4532 43.2641 65.5732 44.4041 59.0132 44.4041C55.8932 44.4041 52.0532 43.9641 49.7132 43.4241L50.0532 41.4241C52.6332 41.9841 56.3132 42.4441 59.5732 42.4441C64.2532 42.4441 65.1332 41.9041 65.1332 40.4841C65.1332 38.9841 64.2332 38.7441 62.5132 38.5641L54.7332 37.8841C51.2332 37.6241 49.4932 36.7041 49.4932 34.2041C49.4932 31.3841 51.7532 30.3041 57.9132 30.3041C60.5132 30.3041 64.3532 30.6841 66.8332 31.2041L66.4332 33.1041C64.1132 32.6441 60.3332 32.2641 57.4132 32.2641C52.6932 32.2641 51.8132 32.7441 51.8132 34.1441C51.8132 35.4641 52.7932 35.7041 54.6332 35.9041L62.2132 36.5441C65.5532 36.8041 67.4532 37.6641 67.4532 40.5441ZM68.3714 39.1241C68.3714 35.4041 70.9314 33.9041 77.0714 33.9041C79.5514 33.9041 81.8514 34.2241 83.4914 34.6241L83.0114 36.4841C81.6514 36.1841 79.7114 35.8641 76.7714 35.8641C72.3514 35.8641 70.6514 36.6241 70.6514 39.1241C70.6514 41.6441 72.3514 42.4241 76.7714 42.4241C79.7114 42.4241 81.6514 42.1041 83.0114 41.8041L83.4914 43.6641C81.8514 44.0641 79.6914 44.3841 77.0714 44.3841C70.9314 44.3841 68.3714 42.8641 68.3714 39.1241ZM86.9198 40.8641V44.1641H84.5598V40.8641H86.9198ZM112.188 40.5441C112.188 43.2641 110.308 44.4041 103.748 44.4041C100.628 44.4041 96.7882 43.9641 94.4482 43.4241L94.7882 41.4241C97.3682 41.9841 101.048 42.4441 104.308 42.4441C108.988 42.4441 109.868 41.9041 109.868 40.4841C109.868 38.9841 108.968 38.7441 107.248 38.5641L99.4682 37.8841C95.9682 37.6241 94.2282 36.7041 94.2282 34.2041C94.2282 31.3841 96.4882 30.3041 102.648 30.3041C105.248 30.3041 109.088 30.6841 111.568 31.2041L111.168 33.1041C108.848 32.6441 105.068 32.2641 102.148 32.2641C97.4282 32.2641 96.5482 32.7441 96.5482 34.1441C96.5482 35.4641 97.5282 35.7041 99.3682 35.9041L106.948 36.5441C110.288 36.8041 112.188 37.6641 112.188 40.5441ZM113.106 39.1441C113.106 35.5041 115.826 33.8841 121.646 33.8841C127.486 33.8841 130.186 35.5041 130.186 39.1441C130.186 42.7841 127.486 44.4041 121.646 44.4041C115.826 44.4041 113.106 42.7841 113.106 39.1441ZM115.386 39.1441C115.386 41.5041 116.986 42.4441 121.646 42.4441C126.306 42.4441 127.906 41.5041 127.906 39.1441C127.906 36.8041 126.306 35.8441 121.646 35.8441C116.986 35.8441 115.386 36.8041 115.386 39.1441ZM134.867 44.1641H132.567V36.0241H130.447V34.1441H132.567V33.9041C132.567 30.6041 134.747 28.9241 139.047 28.9241C140.847 28.9241 142.267 29.1241 143.467 29.3441L143.047 31.0841C141.887 30.9041 140.667 30.7441 138.947 30.7441C135.927 30.7441 134.867 31.7441 134.867 33.7641V34.1441H142.087V36.0241H134.867V44.1641ZM144.342 39.2041V36.0241H141.882V34.1441H144.382L144.782 31.5841H146.642V34.1441H155.082V36.0241H146.642V39.0241C146.642 41.5641 147.502 42.4441 150.542 42.4441C152.362 42.4441 153.902 42.1641 155.262 41.8641L155.702 43.7041C154.282 44.0641 152.362 44.4041 150.362 44.4041C146.122 44.4041 144.342 43.0041 144.342 39.2041ZM166.532 34.1441H169.432L174.452 42.2841L178.492 34.1441H180.932L175.732 44.1641H173.172L167.952 35.7241L162.712 44.1641H160.152L155.172 34.1441H157.592L161.572 42.2841L166.532 34.1441ZM195.823 34.6441V44.1641H193.823L193.623 42.4841C191.503 43.4841 188.883 44.3641 186.203 44.3641C182.423 44.3641 180.263 42.8241 180.263 39.2041C180.263 35.2441 183.303 33.9441 187.803 33.9441C190.883 33.9441 193.723 34.3041 195.823 34.6441ZM182.543 39.1441C182.543 41.5041 183.783 42.4441 186.623 42.4441C188.923 42.4441 191.243 41.7841 193.543 40.9241V36.2441C191.783 36.0041 189.523 35.8241 187.563 35.8241C184.423 35.8241 182.543 36.7041 182.543 39.1441ZM197.433 44.1641V34.1441H199.433L199.633 36.1641C201.653 34.9441 204.273 33.9041 207.233 33.9041V35.9841C204.573 35.9841 202.353 36.4641 199.713 37.7241V44.1641H197.433ZM215.424 42.5641C218.344 42.5641 220.804 42.1241 221.824 41.9041L222.304 43.6241C220.604 44.0641 217.804 44.4041 215.244 44.4041C209.764 44.4041 207.084 43.0241 207.084 39.1441C207.084 35.3441 209.984 33.9041 214.924 33.9041C219.464 33.9041 222.664 35.0641 222.664 38.6241C222.664 38.9641 222.624 39.5241 222.584 39.7441H209.324C209.604 42.0241 211.464 42.5641 215.424 42.5641ZM214.844 35.5241C211.284 35.5241 209.564 36.2441 209.324 38.4441H220.424C220.244 36.4641 218.944 35.5241 214.844 35.5241ZM43.8371 70.1641H26.1771V56.5241H43.8371V58.4841H28.6171V62.3841H43.4571V64.0441H28.6171V68.2041H43.8371V70.1641ZM45.3101 70.1641V60.1441H47.3101L47.4901 61.5441C49.5901 60.6641 52.1301 59.9041 54.7501 59.9041C58.3501 59.9041 60.4701 61.2841 60.4701 64.7241V70.1641H58.1901V65.0041C58.1901 62.9841 56.9901 61.8441 54.0301 61.8441C52.2501 61.8441 50.0301 62.3041 47.5901 63.1041V70.1641H45.3101ZM77.2026 60.6441V68.6041C77.2026 72.5641 74.7426 74.0241 69.0226 74.0241C66.8826 74.0241 64.0626 73.7041 62.0026 73.1041L62.5226 71.3241C64.4826 71.8441 66.7426 72.2041 69.1426 72.2041C73.6626 72.2041 75.0826 71.1641 75.0026 68.6241L74.9626 68.1441C72.8826 69.0041 70.3626 69.6641 67.7426 69.6641C63.6626 69.6641 61.5626 68.2441 61.5626 64.8641C61.5626 61.1641 64.5626 59.9441 69.1626 59.9441C72.2626 59.9441 75.1026 60.3041 77.2026 60.6441ZM63.8426 64.8441C63.8426 66.9841 65.0826 67.8641 67.9226 67.8641C70.2226 67.8641 72.6026 67.3841 74.9026 66.6041V62.2441C73.1226 62.0041 70.8226 61.8241 68.8626 61.8241C65.7226 61.8241 63.8426 62.6041 63.8426 64.8441ZM80.9732 56.0041V58.7041H78.6932V56.0041H80.9732ZM78.6932 70.1641V60.1441H80.9732V70.1641H78.6932ZM82.6504 70.1641V60.1441H84.6504L84.8304 61.5441C86.9304 60.6641 89.4704 59.9041 92.0904 59.9041C95.6904 59.9041 97.8104 61.2841 97.8104 64.7241V70.1641H95.5304V65.0041C95.5304 62.9841 94.3304 61.8441 91.3704 61.8441C89.5904 61.8441 87.3704 62.3041 84.9304 63.1041V70.1641H82.6504ZM107.243 68.5641C110.163 68.5641 112.623 68.1241 113.643 67.9041L114.123 69.6241C112.423 70.0641 109.623 70.4041 107.063 70.4041C101.583 70.4041 98.9029 69.0241 98.9029 65.1441C98.9029 61.3441 101.803 59.9041 106.743 59.9041C111.283 59.9041 114.483 61.0641 114.483 64.6241C114.483 64.9641 114.443 65.5241 114.403 65.7441H101.143C101.423 68.0241 103.283 68.5641 107.243 68.5641ZM106.663 61.5241C103.103 61.5241 101.383 62.2441 101.143 64.4441H112.243C112.063 62.4641 110.763 61.5241 106.663 61.5241ZM123.681 68.5641C126.601 68.5641 129.061 68.1241 130.081 67.9041L130.561 69.6241C128.861 70.0641 126.061 70.4041 123.501 70.4041C118.021 70.4041 115.341 69.0241 115.341 65.1441C115.341 61.3441 118.241 59.9041 123.181 59.9041C127.721 59.9041 130.921 61.0641 130.921 64.6241C130.921 64.9641 130.881 65.5241 130.841 65.7441H117.581C117.861 68.0241 119.721 68.5641 123.681 68.5641ZM123.101 61.5241C119.541 61.5241 117.821 62.2441 117.581 64.4441H128.681C128.501 62.4641 127.201 61.5241 123.101 61.5241ZM132.178 70.1641V60.1441H134.178L134.378 62.1641C136.398 60.9441 139.018 59.9041 141.978 59.9041V61.9841C139.318 61.9841 137.098 62.4641 134.458 63.7241V70.1641H132.178ZM145.31 56.0041V58.7041H143.03V56.0041H145.31ZM143.03 70.1641V60.1441H145.31V70.1641H143.03ZM146.987 70.1641V60.1441H148.987L149.167 61.5441C151.267 60.6641 153.807 59.9041 156.427 59.9041C160.027 59.9041 162.147 61.2841 162.147 64.7241V70.1641H159.867V65.0041C159.867 62.9841 158.667 61.8441 155.707 61.8441C153.927 61.8441 151.707 62.3041 149.267 63.1041V70.1641H146.987ZM178.88 60.6441V68.6041C178.88 72.5641 176.42 74.0241 170.7 74.0241C168.56 74.0241 165.74 73.7041 163.68 73.1041L164.2 71.3241C166.16 71.8441 168.42 72.2041 170.82 72.2041C175.34 72.2041 176.76 71.1641 176.68 68.6241L176.64 68.1441C174.56 69.0041 172.04 69.6641 169.42 69.6641C165.34 69.6641 163.24 68.2441 163.24 64.8641C163.24 61.1641 166.24 59.9441 170.84 59.9441C173.94 59.9441 176.78 60.3041 178.88 60.6441ZM165.52 64.8441C165.52 66.9841 166.76 67.8641 169.6 67.8641C171.9 67.8641 174.28 67.3841 176.58 66.6041V62.2441C174.8 62.0041 172.5 61.8241 170.54 61.8241C167.4 61.8241 165.52 62.6041 165.52 64.8441Z" fill="white"/>
<mask id="path-2-inside-1_69_102" fill="white">
<path d="M285.485 0H303V16.3285H285.485V0Z"/>
</mask>
<path d="M303 0H304V-1H303V0ZM285.485 0V1H303V0V-1H285.485V0ZM303 0H302V16.3285H303H304V0H303Z" fill="#B8B8B8" mask="url(#path-2-inside-1_69_102)"/>
<mask id="path-4-inside-2_69_102" fill="white">
<path d="M0 16.3286L0 0.000102997L17.5144 0.000102997L17.5144 16.3286L0 16.3286Z"/>
</mask>
<path d="M0 0.000102997L0 -0.999897H-1L-1 0.000102997H0ZM0 16.3286H1L1 0.000102997H0H-1L-1 16.3286H0ZM0 0.000102997L0 1.0001L17.5144 1.0001V0.000102997V-0.999897L0 -0.999897L0 0.000102997Z" fill="#B8B8B8" mask="url(#path-4-inside-2_69_102)"/>
<mask id="path-6-inside-3_69_102" fill="white">
<path d="M303 152.672V169H285.486V152.672H303Z"/>
</mask>
<path d="M303 169V170H304V169H303ZM303 152.672H302V169H303H304V152.672H303ZM303 169V168H285.486V169V170H303V169Z" fill="#B8B8B8" mask="url(#path-6-inside-3_69_102)"/>
<mask id="path-8-inside-4_69_102" fill="white">
<path d="M17.5145 169H0.000118256L0.000118256 152.672H17.5145L17.5145 169Z"/>
</mask>
<path d="M0.000118256 169H-0.999882V170H0.000118256V169ZM17.5145 169V168H0.000118256V169V170H17.5145V169ZM0.000118256 169H1.00012L1.00012 152.672H0.000118256H-0.999882L-0.999882 169H0.000118256Z" fill="#B8B8B8" mask="url(#path-8-inside-4_69_102)"/>
</svg>
