<svg width="361" height="492" viewBox="0 0 361 492" fill="none" xmlns="http://www.w3.org/2000/svg">
<rect width="161.116" height="84.9182" transform="translate(4.94214 4.54102)" fill="#1E1E1E"/>
<path d="M45.6669 52.5V41.588H56.2429C58.9309 41.588 60.4509 42.596 60.4509 45.124C60.4509 47.748 58.9309 48.836 56.2429 48.836H47.6189V52.5H45.6669ZM56.0829 43.268H47.6189V47.156H56.0829C57.7149 47.156 58.4349 46.596 58.4349 45.22C58.4349 43.796 57.7149 43.268 56.0829 43.268ZM61.0481 48.068V44.484H62.8721V47.812C62.8721 49.588 63.8801 50.276 66.4881 50.276C68.3121 50.276 70.0401 49.94 71.7361 49.444V44.484H73.5601V51.076C73.5601 54.484 71.6561 55.588 67.1921 55.588C65.2401 55.588 63.1121 55.284 61.6241 54.852L61.9761 53.412C63.5921 53.828 65.3841 54.132 67.3041 54.132C70.6801 54.132 71.8801 53.396 71.8161 51.22L71.7681 50.724C70.1521 51.316 68.1041 51.812 66.0721 51.812C62.5201 51.812 61.0481 50.644 61.0481 48.068ZM75.9607 48.532V45.988H73.9927V44.484H75.9927L76.3127 42.436H77.8007V44.484H84.5527V45.988H77.8007V48.388C77.8007 50.42 78.4887 51.124 80.9207 51.124C82.3767 51.124 83.6087 50.9 84.6967 50.66L85.0487 52.132C83.9127 52.42 82.3767 52.692 80.7767 52.692C77.3847 52.692 75.9607 51.572 75.9607 48.532ZM85.6642 52.5V40.5H87.4882V45.508C89.1522 44.836 91.1682 44.292 93.2322 44.292C96.0962 44.292 97.7922 45.396 97.7922 48.148V52.5H95.9682V48.372C95.9682 46.756 95.0082 45.844 92.6402 45.844C91.2162 45.844 89.4402 46.212 87.4882 46.852V52.5H85.6642ZM98.6662 48.484C98.6662 45.572 100.842 44.276 105.498 44.276C110.17 44.276 112.33 45.572 112.33 48.484C112.33 51.396 110.17 52.692 105.498 52.692C100.842 52.692 98.6662 51.396 98.6662 48.484ZM100.49 48.484C100.49 50.372 101.77 51.124 105.498 51.124C109.226 51.124 110.506 50.372 110.506 48.484C110.506 46.612 109.226 45.844 105.498 45.844C101.77 45.844 100.49 46.612 100.49 48.484ZM113.355 52.5V44.484H114.955L115.099 45.604C116.779 44.9 118.811 44.292 120.907 44.292C123.787 44.292 125.483 45.396 125.483 48.148V52.5H123.659V48.372C123.659 46.756 122.699 45.844 120.331 45.844C118.907 45.844 117.131 46.212 115.179 46.852V52.5H113.355Z" fill="white"/>
<mask id="path-2-inside-1_136_480" fill="white">
<path d="M161.115 0H171V9.08216H161.115V0Z"/>
</mask>
<path d="M171 0H172V-1H171V0ZM161.115 0V1H171V0V-1H161.115V0ZM171 0H170V9.08216H171H172V0H171Z" fill="#B8B8B8" mask="url(#path-2-inside-1_136_480)"/>
<mask id="path-4-inside-2_136_480" fill="white">
<path d="M0 9.08228L0 0.000119209H9.8844L9.8844 9.08228H0Z"/>
</mask>
<path d="M0 0.000119209L0 -0.999881H-1L-1 0.000119209H0ZM0 9.08228H1L1 0.000119209H0H-1L-1 9.08228H0ZM0 0.000119209L0 1.00012H9.8844V0.000119209V-0.999881H0L0 0.000119209Z" fill="#B8B8B8" mask="url(#path-4-inside-2_136_480)"/>
<mask id="path-6-inside-3_136_480" fill="white">
<path d="M171 84.9177V93.9999H161.116V84.9177H171Z"/>
</mask>
<path d="M171 93.9999V94.9999H172V93.9999H171ZM171 84.9177H170V93.9999H171H172V84.9177H171ZM171 93.9999V92.9999H161.116V93.9999V94.9999H171V93.9999Z" fill="#B8B8B8" mask="url(#path-6-inside-3_136_480)"/>
<mask id="path-8-inside-4_136_480" fill="white">
<path d="M9.88452 94H0.000124931L0.000124931 84.9178H9.88452L9.88452 94Z"/>
</mask>
<path d="M0.000124931 94H-0.999875V95H0.000124931V94ZM9.88452 94V93H0.000124931V94V95H9.88452V94ZM0.000124931 94H1.00012L1.00012 84.9178H0.000124931H-0.999875L-0.999875 94H0.000124931Z" fill="#B8B8B8" mask="url(#path-8-inside-4_136_480)"/>
<rect width="160.173" height="84.9182" transform="translate(195.913 4.54102)" fill="#1E1E1E"/>
<path d="M261.342 52.5H251.598V41.588H261.342C265.518 41.588 267.726 43.044 267.726 47.028C267.726 51.06 265.502 52.5 261.342 52.5ZM253.55 43.268V50.82H261.166C264.462 50.82 265.71 49.796 265.71 47.028C265.71 44.26 264.462 43.268 261.166 43.268H253.55ZM280.861 44.884V52.5H279.261L279.101 51.156C277.405 51.956 275.309 52.66 273.165 52.66C270.141 52.66 268.413 51.428 268.413 48.532C268.413 45.364 270.845 44.324 274.445 44.324C276.909 44.324 279.181 44.612 280.861 44.884ZM270.237 48.484C270.237 50.372 271.229 51.124 273.501 51.124C275.341 51.124 277.197 50.596 279.037 49.908V46.164C277.629 45.972 275.821 45.828 274.253 45.828C271.741 45.828 270.237 46.532 270.237 48.484ZM282.149 52.5V44.484H283.749L283.909 46.1C285.525 45.124 287.621 44.292 289.989 44.292V45.956C287.861 45.956 286.085 46.34 283.973 47.348V52.5H282.149ZM292.042 48.532V45.988H290.074V44.484H292.074L292.394 42.436H293.882V44.484H300.634V45.988H293.882V48.388C293.882 50.42 294.57 51.124 297.002 51.124C298.458 51.124 299.69 50.9 300.778 50.66L301.13 52.132C299.994 52.42 298.458 52.692 296.858 52.692C293.466 52.692 292.042 51.572 292.042 48.532Z" fill="white"/>
<mask id="path-11-inside-5_136_480" fill="white">
<path d="M351.173 0H361V9.08216H351.173V0Z"/>
</mask>
<path d="M361 0H362V-1H361V0ZM351.173 0V1H361V0V-1H351.173V0ZM361 0H360V9.08216H361H362V0H361Z" fill="#B8B8B8" mask="url(#path-11-inside-5_136_480)"/>
<mask id="path-13-inside-6_136_480" fill="white">
<path d="M191 9.08228V0.000119209H200.827V9.08228H191Z"/>
</mask>
<path d="M191 0.000119209V-0.999881H190V0.000119209H191ZM191 9.08228H192V0.000119209H191H190V9.08228H191ZM191 0.000119209V1.00012H200.827V0.000119209V-0.999881H191V0.000119209Z" fill="#B8B8B8" mask="url(#path-13-inside-6_136_480)"/>
<mask id="path-15-inside-7_136_480" fill="white">
<path d="M361 84.9177V93.9999H351.174V84.9177H361Z"/>
</mask>
<path d="M361 93.9999V94.9999H362V93.9999H361ZM361 84.9177H360V93.9999H361H362V84.9177H361ZM361 93.9999V92.9999H351.174V93.9999V94.9999H361V93.9999Z" fill="#B8B8B8" mask="url(#path-15-inside-7_136_480)"/>
<mask id="path-17-inside-8_136_480" fill="white">
<path d="M200.827 94H191V84.9178H200.827V94Z"/>
</mask>
<path d="M191 94H190V95H191V94ZM200.827 94V93H191V94V95H200.827V94ZM191 94H192V84.9178H191H190V94H191Z" fill="#B8B8B8" mask="url(#path-17-inside-8_136_480)"/>
<rect width="161.116" height="84.9182" transform="translate(99.9421 203.541)" fill="#C82D0B"/>
<path d="M132.647 251.5H130.695V240.588H144.823V242.268H132.647V245.676H144.519V247.244H132.647V251.5ZM145.701 247.852V243.484H147.525V247.612C147.525 249.228 148.517 250.14 150.949 250.14C152.293 250.14 154.133 249.756 156.101 249.1V243.484H157.925V251.5H156.341L156.181 250.348C154.469 251.068 152.405 251.692 150.373 251.692C147.429 251.692 145.701 250.604 145.701 247.852ZM161.022 239.5V251.5H159.198V239.5H161.022ZM164.188 239.5V251.5H162.364V239.5H164.188ZM181.581 249.388C181.581 251.18 180.125 251.692 176.221 251.692C173.949 251.692 171.853 251.42 170.317 251.116L170.637 249.868C172.301 250.172 174.269 250.412 176.349 250.412C179.069 250.412 179.853 250.252 179.853 249.372C179.853 248.492 179.085 248.348 177.213 248.204L173.565 247.98C171.309 247.836 170.157 247.34 170.157 245.612C170.157 243.708 172.093 243.276 175.869 243.276C177.341 243.276 179.549 243.5 180.989 243.724L180.717 244.972C178.925 244.7 177.213 244.54 175.485 244.54C172.781 244.54 171.885 244.732 171.885 245.596C171.885 246.46 172.621 246.556 173.757 246.636L177.565 246.892C180.253 247.052 181.581 247.596 181.581 249.388ZM183.558 247.532V244.988H181.59V243.484H183.59L183.91 241.436H185.398V243.484H192.15V244.988H185.398V247.388C185.398 249.42 186.086 250.124 188.518 250.124C189.974 250.124 191.206 249.9 192.294 249.66L192.646 251.132C191.51 251.42 189.974 251.692 188.374 251.692C184.982 251.692 183.558 250.572 183.558 247.532ZM205.389 243.884V251.5H203.789L203.629 250.156C201.933 250.956 199.837 251.66 197.693 251.66C194.669 251.66 192.941 250.428 192.941 247.532C192.941 244.364 195.373 243.324 198.973 243.324C201.437 243.324 203.709 243.612 205.389 243.884ZM194.765 247.484C194.765 249.372 195.757 250.124 198.029 250.124C199.869 250.124 201.725 249.596 203.565 248.908V245.164C202.157 244.972 200.349 244.828 198.781 244.828C196.269 244.828 194.765 245.532 194.765 247.484ZM206.357 247.468C206.357 244.492 208.405 243.292 213.317 243.292C215.301 243.292 217.141 243.548 218.453 243.868L218.069 245.356C216.981 245.116 215.429 244.86 213.077 244.86C209.541 244.86 208.181 245.468 208.181 247.468C208.181 249.484 209.541 250.108 213.077 250.108C215.429 250.108 216.981 249.852 218.069 249.612L218.453 251.1C217.141 251.42 215.413 251.676 213.317 251.676C208.405 251.676 206.357 250.46 206.357 247.468ZM221.292 239.5V246.444H224.156L228.78 243.484H231.324L225.772 247.228L231.532 251.5H228.988L224.076 247.948H221.292V251.5H219.468V239.5H221.292Z" fill="white"/>
<mask id="path-20-inside-9_136_480" fill="white">
<path d="M256.115 199H266V208.082H256.115V199Z"/>
</mask>
<path d="M266 199H267V198H266V199ZM256.115 199V200H266V199V198H256.115V199ZM266 199H265V208.082H266H267V199H266Z" fill="#B8B8B8" mask="url(#path-20-inside-9_136_480)"/>
<mask id="path-22-inside-10_136_480" fill="white">
<path d="M95 208.082V199H104.884V208.082H95Z"/>
</mask>
<path d="M95 199V198H94V199H95ZM95 208.082H96V199H95H94V208.082H95ZM95 199V200H104.884V199V198H95V199Z" fill="#B8B8B8" mask="url(#path-22-inside-10_136_480)"/>
<mask id="path-24-inside-11_136_480" fill="white">
<path d="M266 283.918V293H256.116V283.918H266Z"/>
</mask>
<path d="M266 293V294H267V293H266ZM266 283.918H265V293H266H267V283.918H266ZM266 293V292H256.116V293V294H266V293Z" fill="#B8B8B8" mask="url(#path-24-inside-11_136_480)"/>
<mask id="path-26-inside-12_136_480" fill="white">
<path d="M104.885 293H95.0001V283.918H104.885V293Z"/>
</mask>
<path d="M95.0001 293H94.0001V294H95.0001V293ZM104.885 293V292H95.0001V293V294H104.885V293ZM95.0001 293H96.0001V283.918H95.0001H94.0001V293H95.0001Z" fill="#B8B8B8" mask="url(#path-26-inside-12_136_480)"/>
<rect width="161.116" height="84.9182" transform="translate(4.94214 402.541)" fill="#1E1E1E"/>
<path d="M58.5203 450.5H48.7763V439.588H58.5203C62.6963 439.588 64.9043 441.044 64.9043 445.028C64.9043 449.06 62.6803 450.5 58.5203 450.5ZM50.7283 441.268V448.82H58.3443C61.6403 448.82 62.8883 447.796 62.8883 445.028C62.8883 442.26 61.6403 441.268 58.3443 441.268H50.7283ZM67.7348 439.172V441.332H65.9108V439.172H67.7348ZM66.3108 453.396H64.3588C64.9988 452.548 65.9108 451.204 65.9108 449.172V442.484H67.7348V449.188C67.7348 451.396 66.9028 452.628 66.3108 453.396ZM81.2046 442.884V450.5H79.6046L79.4446 449.156C77.7486 449.956 75.6526 450.66 73.5086 450.66C70.4846 450.66 68.7566 449.428 68.7566 446.532C68.7566 443.364 71.1886 442.324 74.7886 442.324C77.2526 442.324 79.5246 442.612 81.2046 442.884ZM70.5806 446.484C70.5806 448.372 71.5726 449.124 73.8446 449.124C75.6846 449.124 77.5406 448.596 79.3806 447.908V444.164C77.9726 443.972 76.1646 443.828 74.5966 443.828C72.0846 443.828 70.5806 444.532 70.5806 446.484ZM82.4923 450.5V442.484H84.0923L84.2363 443.604C85.9163 442.9 87.9483 442.292 90.0443 442.292C92.9243 442.292 94.6203 443.396 94.6203 446.148V450.5H92.7963V446.372C92.7963 444.756 91.8363 443.844 89.4683 443.844C88.0443 443.844 86.2683 444.212 84.3163 444.852V450.5H82.4923ZM108.006 442.884V449.252C108.006 452.42 106.038 453.588 101.462 453.588C99.7503 453.588 97.4943 453.332 95.8463 452.852L96.2623 451.428C97.8303 451.844 99.6383 452.132 101.558 452.132C105.174 452.132 106.31 451.3 106.246 449.268L106.214 448.884C104.55 449.572 102.534 450.1 100.438 450.1C97.1743 450.1 95.4943 448.964 95.4943 446.26C95.4943 443.3 97.8943 442.324 101.574 442.324C104.054 442.324 106.326 442.612 108.006 442.884ZM97.3183 446.244C97.3183 447.956 98.3103 448.66 100.582 448.66C102.422 448.66 104.326 448.276 106.166 447.652V444.164C104.742 443.972 102.902 443.828 101.334 443.828C98.8223 443.828 97.3183 444.452 97.3183 446.244ZM108.879 446.484C108.879 443.572 111.055 442.276 115.711 442.276C120.383 442.276 122.543 443.572 122.543 446.484C122.543 449.396 120.383 450.692 115.711 450.692C111.055 450.692 108.879 449.396 108.879 446.484ZM110.703 446.484C110.703 448.372 111.983 449.124 115.711 449.124C119.439 449.124 120.719 448.372 120.719 446.484C120.719 444.612 119.439 443.844 115.711 443.844C111.983 443.844 110.703 444.612 110.703 446.484Z" fill="white"/>
<mask id="path-29-inside-13_136_480" fill="white">
<path d="M161.115 398H171V407.082H161.115V398Z"/>
</mask>
<path d="M171 398H172V397H171V398ZM161.115 398V399H171V398V397H161.115V398ZM171 398H170V407.082H171H172V398H171Z" fill="#B8B8B8" mask="url(#path-29-inside-13_136_480)"/>
<mask id="path-31-inside-14_136_480" fill="white">
<path d="M0 407.082L0 398H9.8844L9.8844 407.082H0Z"/>
</mask>
<path d="M0 398L0 397H-1L-1 398H0ZM0 407.082H1L1 398H0H-1L-1 407.082H0ZM0 398L0 399H9.8844V398V397H0L0 398Z" fill="#B8B8B8" mask="url(#path-31-inside-14_136_480)"/>
<mask id="path-33-inside-15_136_480" fill="white">
<path d="M171 482.918V492H161.116V482.918H171Z"/>
</mask>
<path d="M171 492V493H172V492H171ZM171 482.918H170V492H171H172V482.918H171ZM171 492V491H161.116V492V493H171V492Z" fill="#B8B8B8" mask="url(#path-33-inside-15_136_480)"/>
<mask id="path-35-inside-16_136_480" fill="white">
<path d="M9.88452 492H0.000124931L0.000124931 482.918H9.88452L9.88452 492Z"/>
</mask>
<path d="M0.000124931 492H-0.999875V493H0.000124931V492ZM9.88452 492V491H0.000124931V492V493H9.88452V492ZM0.000124931 492H1.00012L1.00012 482.918H0.000124931H-0.999875L-0.999875 492H0.000124931Z" fill="#B8B8B8" mask="url(#path-35-inside-16_136_480)"/>
<rect width="160.173" height="84.9182" transform="translate(195.913 402.541)" fill="#1E1E1E"/>
<path d="M241.114 450.5H239.162V439.588H253.29V441.268H241.114V444.676H252.986V446.244H241.114V450.5ZM256.074 438.5V450.5H254.25V438.5H256.074ZM257.272 446.852V442.484H259.096V446.612C259.096 448.228 260.088 449.14 262.52 449.14C263.864 449.14 265.704 448.756 267.672 448.1V442.484H269.496V450.5H267.912L267.752 449.348C266.04 450.068 263.976 450.692 261.944 450.692C259 450.692 257.272 449.604 257.272 446.852ZM271.887 446.532V443.988H269.919V442.484H271.919L272.239 440.436H273.727V442.484H280.479V443.988H273.727V446.388C273.727 448.42 274.415 449.124 276.847 449.124C278.303 449.124 279.535 448.9 280.623 448.66L280.975 450.132C279.839 450.42 278.303 450.692 276.703 450.692C273.311 450.692 271.887 449.572 271.887 446.532ZM282.647 446.532V443.988H280.679V442.484H282.679L282.999 440.436H284.487V442.484H291.239V443.988H284.487V446.388C284.487 448.42 285.175 449.124 287.607 449.124C289.063 449.124 290.295 448.9 291.383 448.66L291.735 450.132C290.599 450.42 289.063 450.692 287.463 450.692C284.071 450.692 282.647 449.572 282.647 446.532ZM298.702 449.22C301.038 449.22 303.006 448.868 303.822 448.692L304.206 450.068C302.846 450.42 300.606 450.692 298.558 450.692C294.174 450.692 292.03 449.588 292.03 446.484C292.03 443.444 294.35 442.292 298.302 442.292C301.934 442.292 304.494 443.22 304.494 446.068C304.494 446.34 304.462 446.788 304.43 446.964H293.822C294.046 448.788 295.534 449.22 298.702 449.22ZM298.238 443.588C295.39 443.588 294.014 444.164 293.822 445.924H302.702C302.558 444.34 301.518 443.588 298.238 443.588ZM305.5 450.5V442.484H307.1L307.26 444.1C308.876 443.124 310.972 442.292 313.34 442.292V443.956C311.212 443.956 309.436 444.34 307.324 445.348V450.5H305.5Z" fill="white"/>
<mask id="path-38-inside-17_136_480" fill="white">
<path d="M351.173 398H361V407.082H351.173V398Z"/>
</mask>
<path d="M361 398H362V397H361V398ZM351.173 398V399H361V398V397H351.173V398ZM361 398H360V407.082H361H362V398H361Z" fill="#B8B8B8" mask="url(#path-38-inside-17_136_480)"/>
<mask id="path-40-inside-18_136_480" fill="white">
<path d="M191 407.082V398H200.827V407.082H191Z"/>
</mask>
<path d="M191 398V397H190V398H191ZM191 407.082H192V398H191H190V407.082H191ZM191 398V399H200.827V398V397H191V398Z" fill="#B8B8B8" mask="url(#path-40-inside-18_136_480)"/>
<mask id="path-42-inside-19_136_480" fill="white">
<path d="M361 482.918V492H351.174V482.918H361Z"/>
</mask>
<path d="M361 492V493H362V492H361ZM361 482.918H360V492H361H362V482.918H361ZM361 492V491H351.174V492V493H361V492Z" fill="#B8B8B8" mask="url(#path-42-inside-19_136_480)"/>
<mask id="path-44-inside-20_136_480" fill="white">
<path d="M200.827 492H191V482.918H200.827V492Z"/>
</mask>
<path d="M191 492H190V493H191V492ZM200.827 492V491H191V492V493H200.827V492ZM191 492H192V482.918H191H190V492H191Z" fill="#B8B8B8" mask="url(#path-44-inside-20_136_480)"/>
<path d="M266 244.5C265.167 244.5 264.5 245.167 264.5 246C264.5 246.833 265.167 247.5 266 247.5C266.833 247.5 267.5 246.833 267.5 246C267.5 245.167 266.833 244.5 266 244.5Z" fill="white"/>
<path d="M267.5 246V246C272.194 246 276 242.194 276 237.5V94M264.5 246C264.5 245.167 265.167 244.5 266 244.5C266.833 244.5 267.5 245.167 267.5 246C267.5 246.833 266.833 247.5 266 247.5C265.167 247.5 264.5 246.833 264.5 246Z" stroke="white"/>
<path d="M95 244.5C94.1667 244.5 93.5 245.167 93.5 246C93.5 246.833 94.1667 247.5 95 247.5C95.8333 247.5 96.5 246.833 96.5 246C96.5 245.167 95.8333 244.5 95 244.5Z" fill="white"/>
<path d="M93.5 246V246C89.0817 246 85.5 242.418 85.5 238V94M93.5 246C93.5 245.167 94.1667 244.5 95 244.5C95.8333 244.5 96.5 245.167 96.5 246C96.5 246.833 95.8333 247.5 95 247.5C94.1667 247.5 93.5 246.833 93.5 246Z" stroke="white"/>
<path d="M95 244.5C94.1667 244.5 93.5 245.167 93.5 246C93.5 246.833 94.1667 247.5 95 247.5C95.8333 247.5 96.5 246.833 96.5 246C96.5 245.167 95.8333 244.5 95 244.5Z" fill="white"/>
<path d="M93.5 246V246C89.0817 246 85.5 249.582 85.5 254V398M93.5 246C93.5 245.167 94.1667 244.5 95 244.5C95.8333 244.5 96.5 245.167 96.5 246C96.5 246.833 95.8333 247.5 95 247.5C94.1667 247.5 93.5 246.833 93.5 246Z" stroke="white"/>
<path d="M266 244.5C265.167 244.5 264.5 245.167 264.5 246C264.5 246.833 265.167 247.5 266 247.5C266.833 247.5 267.5 246.833 267.5 246C267.5 245.167 266.833 244.5 266 244.5Z" fill="white"/>
<path d="M267.5 246V246C272.194 246 276 249.806 276 254.5V398M264.5 246C264.5 245.167 265.167 244.5 266 244.5C266.833 244.5 267.5 245.167 267.5 246C267.5 246.833 266.833 247.5 266 247.5C265.167 247.5 264.5 246.833 264.5 246Z" stroke="white"/>
</svg>
