<svg width="1320" height="760" viewBox="0 0 1320 760" fill="none" xmlns="http://www.w3.org/2000/svg">
<path d="M823 378.5C822.167 378.5 821.5 379.167 821.5 380C821.5 380.833 822.167 381.5 823 381.5C823.833 381.5 824.5 380.833 824.5 380C824.5 379.167 823.833 378.5 823 378.5Z" fill="white"/>
<path d="M824.5 380H888.5C899.546 380 908.5 371.046 908.5 360V113C908.5 101.954 917.454 93 928.5 93H994M821.5 380C821.5 379.167 822.167 378.5 823 378.5C823.833 378.5 824.5 379.167 824.5 380C824.5 380.833 823.833 381.5 823 381.5C822.167 381.5 821.5 380.833 821.5 380Z" stroke="white"/>
<path d="M497 378.5C496.167 378.5 495.5 379.167 495.5 380C495.5 380.833 496.167 381.5 497 381.5C497.833 381.5 498.5 380.833 498.5 380C498.5 379.167 497.833 378.5 497 378.5Z" fill="white"/>
<path d="M495.5 380H431.5C420.454 380 411.5 371.046 411.5 360V113C411.5 101.954 402.546 93 391.5 93H326M495.5 380C495.5 379.167 496.167 378.5 497 378.5C497.833 378.5 498.5 379.167 498.5 380C498.5 380.833 497.833 381.5 497 381.5C496.167 381.5 495.5 380.833 495.5 380Z" stroke="white"/>
<path d="M497 378.5C496.167 378.5 495.5 379.167 495.5 380C495.5 380.833 496.167 381.5 497 381.5C497.833 381.5 498.5 380.833 498.5 380C498.5 379.167 497.833 378.5 497 378.5Z" fill="white"/>
<path d="M495.5 380H431.5C420.454 380 411.5 388.954 411.5 400V647C411.5 658.046 402.546 667 391.5 667H326M495.5 380C495.5 379.167 496.167 378.5 497 378.5C497.833 378.5 498.5 379.167 498.5 380C498.5 380.833 497.833 381.5 497 381.5C496.167 381.5 495.5 380.833 495.5 380Z" stroke="white"/>
<path d="M823 378.5C822.167 378.5 821.5 379.167 821.5 380C821.5 380.833 822.167 381.5 823 381.5C823.833 381.5 824.5 380.833 824.5 380C824.5 379.167 823.833 378.5 823 378.5Z" fill="white"/>
<path d="M824.5 380H888.5C899.546 380 908.5 388.954 908.5 400V647C908.5 658.046 917.454 667 928.5 667H994M821.5 380C821.5 379.167 822.167 378.5 823 378.5C823.833 378.5 824.5 379.167 824.5 380C824.5 380.833 823.833 381.5 823 381.5C822.167 381.5 821.5 380.833 821.5 380Z" stroke="white"/>
<rect width="307.155" height="168.029" transform="translate(9.42188 8.98535)" fill="#1E1E1E"/>
<path d="M113.208 99.9995V86.3595H126.428C129.788 86.3595 131.688 87.6195 131.688 90.7795C131.688 94.0595 129.788 95.4195 126.428 95.4195H115.648V99.9995H113.208ZM126.228 88.4595H115.648V93.3195H126.228C128.268 93.3195 129.168 92.6195 129.168 90.8995C129.168 89.1195 128.268 88.4595 126.228 88.4595ZM132.435 94.4595V89.9795H134.715V94.1395C134.715 96.3595 135.975 97.2195 139.235 97.2195C141.515 97.2195 143.675 96.7995 145.795 96.1795V89.9795H148.075V98.2195C148.075 102.48 145.695 103.86 140.115 103.86C137.675 103.86 135.015 103.48 133.155 102.94L133.595 101.14C135.615 101.66 137.855 102.04 140.255 102.04C144.475 102.04 145.975 101.12 145.895 98.3995L145.835 97.7795C143.815 98.5195 141.255 99.1395 138.715 99.1395C134.275 99.1395 132.435 97.6795 132.435 94.4595ZM151.075 95.0395V91.8595H148.615V89.9795H151.115L151.515 87.4195H153.375V89.9795H161.815V91.8595H153.375V94.8595C153.375 97.3995 154.235 98.2795 157.275 98.2795C159.095 98.2795 160.635 97.9995 161.995 97.6995L162.435 99.5395C161.015 99.8995 159.095 100.24 157.095 100.24C152.855 100.24 151.075 98.8395 151.075 95.0395ZM163.205 99.9995V84.9995H165.485V91.2595C167.565 90.4195 170.085 89.7395 172.665 89.7395C176.245 89.7395 178.365 91.1195 178.365 94.5595V99.9995H176.085V94.8395C176.085 92.8195 174.885 91.6795 171.925 91.6795C170.145 91.6795 167.925 92.1395 165.485 92.9395V99.9995H163.205ZM179.457 94.9795C179.457 91.3395 182.177 89.7195 187.997 89.7195C193.837 89.7195 196.537 91.3395 196.537 94.9795C196.537 98.6195 193.837 100.24 187.997 100.24C182.177 100.24 179.457 98.6195 179.457 94.9795ZM181.737 94.9795C181.737 97.3395 183.337 98.2795 187.997 98.2795C192.657 98.2795 194.257 97.3395 194.257 94.9795C194.257 92.6395 192.657 91.6795 187.997 91.6795C183.337 91.6795 181.737 92.6395 181.737 94.9795ZM197.818 99.9995V89.9795H199.818L199.998 91.3795C202.098 90.4995 204.638 89.7395 207.258 89.7395C210.858 89.7395 212.978 91.1195 212.978 94.5595V99.9995H210.698V94.8395C210.698 92.8195 209.498 91.6795 206.538 91.6795C204.758 91.6795 202.538 92.1395 200.098 92.9395V99.9995H197.818Z" fill="white"/>
<mask id="path-10-inside-1_123_475" fill="white">
<path d="M307.156 0H326V17.971H307.156V0Z"/>
</mask>
<path d="M326 0H327V-1H326V0ZM307.156 0V1H326V0V-1H307.156V0ZM326 0H325V17.971H326H327V0H326Z" fill="#B8B8B8" mask="url(#path-10-inside-1_123_475)"/>
<mask id="path-12-inside-2_123_475" fill="white">
<path d="M0 17.9712L0 0.000219345L18.8439 0.000219345L18.8439 17.9712L0 17.9712Z"/>
</mask>
<path d="M0 0.000219345L0 -0.999781H-1V0.000219345H0ZM0 17.9712H1L1 0.000219345H0H-1L-1 17.9712H0ZM0 0.000219345L0 1.00022L18.8439 1.00022V0.000219345V-0.999781L0 -0.999781L0 0.000219345Z" fill="#B8B8B8" mask="url(#path-12-inside-2_123_475)"/>
<mask id="path-14-inside-3_123_475" fill="white">
<path d="M326 168.029V186H307.156V168.029H326Z"/>
</mask>
<path d="M326 186V187H327V186H326ZM326 168.029H325V186H326H327V168.029H326ZM326 186V185H307.156V186V187H326V186Z" fill="#B8B8B8" mask="url(#path-14-inside-3_123_475)"/>
<mask id="path-16-inside-4_123_475" fill="white">
<path d="M18.8438 186H-0.000135422L-0.000135422 168.029H18.8437L18.8438 186Z"/>
</mask>
<path d="M-0.000135422 186H-1.00014V187H-0.000135422V186ZM18.8438 186V185H-0.000135422V186V187H18.8438V186ZM-0.000135422 186H0.999865L0.999865 168.029H-0.000135422H-1.00014L-1.00014 186H-0.000135422Z" fill="#B8B8B8" mask="url(#path-16-inside-4_123_475)"/>
<rect width="307.155" height="168.029" transform="translate(1003.42 8.98535)" fill="#1E1E1E"/>
<path d="M1138.68 99.9995H1126.5V86.3595H1138.68C1143.9 86.3595 1146.66 88.1795 1146.66 93.1595C1146.66 98.1995 1143.88 99.9995 1138.68 99.9995ZM1128.94 88.4595V97.8995H1138.46C1142.58 97.8995 1144.14 96.6195 1144.14 93.1595C1144.14 89.6995 1142.58 88.4595 1138.46 88.4595H1128.94ZM1163.08 90.4795V99.9995H1161.08L1160.88 98.3195C1158.76 99.3195 1156.14 100.2 1153.46 100.2C1149.68 100.2 1147.52 98.6595 1147.52 95.0395C1147.52 91.0795 1150.56 89.7795 1155.06 89.7795C1158.14 89.7795 1160.98 90.1395 1163.08 90.4795ZM1149.8 94.9795C1149.8 97.3395 1151.04 98.2795 1153.88 98.2795C1156.18 98.2795 1158.5 97.6195 1160.8 96.7595V92.0795C1159.04 91.8395 1156.78 91.6595 1154.82 91.6595C1151.68 91.6595 1149.8 92.5395 1149.8 94.9795ZM1164.69 99.9995V89.9795H1166.69L1166.89 91.9995C1168.91 90.7795 1171.53 89.7395 1174.49 89.7395V91.8195C1171.83 91.8195 1169.61 92.2995 1166.97 93.5595V99.9995H1164.69ZM1177.05 95.0395V91.8595H1174.59V89.9795H1177.09L1177.49 87.4195H1179.35V89.9795H1187.79V91.8595H1179.35V94.8595C1179.35 97.3995 1180.21 98.2795 1183.25 98.2795C1185.07 98.2795 1186.61 97.9995 1187.97 97.6995L1188.41 99.5395C1186.99 99.8995 1185.07 100.24 1183.07 100.24C1178.83 100.24 1177.05 98.8395 1177.05 95.0395Z" fill="white"/>
<mask id="path-19-inside-5_123_475" fill="white">
<path d="M1301.16 0H1320V17.971H1301.16V0Z"/>
</mask>
<path d="M1320 0H1321V-1H1320V0ZM1301.16 0V1H1320V0V-1H1301.16V0ZM1320 0H1319V17.971H1320H1321V0H1320Z" fill="#B8B8B8" mask="url(#path-19-inside-5_123_475)"/>
<mask id="path-21-inside-6_123_475" fill="white">
<path d="M994 17.9712V0.000219345L1012.84 0.000219345V17.9712L994 17.9712Z"/>
</mask>
<path d="M994 0.000219345V-0.999781H993V0.000219345H994ZM994 17.9712H995V0.000219345H994H993V17.9712H994ZM994 0.000219345V1.00022L1012.84 1.00022V0.000219345V-0.999781L994 -0.999781V0.000219345Z" fill="#B8B8B8" mask="url(#path-21-inside-6_123_475)"/>
<mask id="path-23-inside-7_123_475" fill="white">
<path d="M1320 168.029V186H1301.16V168.029H1320Z"/>
</mask>
<path d="M1320 186V187H1321V186H1320ZM1320 168.029H1319V186H1320H1321V168.029H1320ZM1320 186V185H1301.16V186V187H1320V186Z" fill="#B8B8B8" mask="url(#path-23-inside-7_123_475)"/>
<mask id="path-25-inside-8_123_475" fill="white">
<path d="M1012.84 186H994V168.029H1012.84V186Z"/>
</mask>
<path d="M994 186H993V187H994V186ZM1012.84 186V185H994V186V187H1012.84V186ZM994 186H995V168.029H994H993V186H994Z" fill="#B8B8B8" mask="url(#path-25-inside-8_123_475)"/>
<rect width="307.155" height="168.029" transform="translate(506.422 295.985)" fill="#C82D0B"/>
<path d="M600.183 387H597.743V373.36H615.403V375.46H600.183V379.72H615.023V381.68H600.183V387ZM616.501 382.44V376.98H618.781V382.14C618.781 384.16 620.021 385.3 623.061 385.3C624.741 385.3 627.041 384.82 629.501 384V376.98H631.781V387H629.801L629.601 385.56C627.461 386.46 624.881 387.24 622.341 387.24C618.661 387.24 616.501 385.88 616.501 382.44ZM635.652 372V387H633.372V372H635.652ZM639.609 372V387H637.329V372H639.609ZM661.35 384.36C661.35 386.6 659.53 387.24 654.65 387.24C651.81 387.24 649.19 386.9 647.27 386.52L647.67 384.96C649.75 385.34 652.21 385.64 654.81 385.64C658.21 385.64 659.19 385.44 659.19 384.34C659.19 383.24 658.23 383.06 655.89 382.88L651.33 382.6C648.51 382.42 647.07 381.8 647.07 379.64C647.07 377.26 649.49 376.72 654.21 376.72C656.05 376.72 658.81 377 660.61 377.28L660.27 378.84C658.03 378.5 655.89 378.3 653.73 378.3C650.35 378.3 649.23 378.54 649.23 379.62C649.23 380.7 650.15 380.82 651.57 380.92L656.33 381.24C659.69 381.44 661.35 382.12 661.35 384.36ZM663.822 382.04V378.86H661.362V376.98H663.862L664.262 374.42H666.122V376.98H674.562V378.86H666.122V381.86C666.122 384.4 666.982 385.28 670.022 385.28C671.842 385.28 673.382 385 674.742 384.7L675.182 386.54C673.762 386.9 671.842 387.24 669.842 387.24C665.602 387.24 663.822 385.84 663.822 382.04ZM691.111 377.48V387H689.111L688.911 385.32C686.791 386.32 684.171 387.2 681.491 387.2C677.711 387.2 675.551 385.66 675.551 382.04C675.551 378.08 678.591 376.78 683.091 376.78C686.171 376.78 689.011 377.14 691.111 377.48ZM677.831 381.98C677.831 384.34 679.071 385.28 681.911 385.28C684.211 385.28 686.531 384.62 688.831 383.76V379.08C687.071 378.84 684.811 378.66 682.851 378.66C679.711 378.66 677.831 379.54 677.831 381.98ZM692.321 381.96C692.321 378.24 694.881 376.74 701.021 376.74C703.501 376.74 705.801 377.06 707.441 377.46L706.961 379.32C705.601 379.02 703.661 378.7 700.721 378.7C696.301 378.7 694.601 379.46 694.601 381.96C694.601 384.48 696.301 385.26 700.721 385.26C703.661 385.26 705.601 384.94 706.961 384.64L707.441 386.5C705.801 386.9 703.641 387.22 701.021 387.22C694.881 387.22 692.321 385.7 692.321 381.96ZM710.989 372V380.68H714.569L720.349 376.98H723.529L716.589 381.66L723.789 387H720.609L714.469 382.56H710.989V387H708.709V372H710.989Z" fill="white"/>
<mask id="path-28-inside-9_123_475" fill="white">
<path d="M804.156 287H823V304.971H804.156V287Z"/>
</mask>
<path d="M823 287H824V286H823V287ZM804.156 287V288H823V287V286H804.156V287ZM823 287H822V304.971H823H824V287H823Z" fill="#B8B8B8" mask="url(#path-28-inside-9_123_475)"/>
<mask id="path-30-inside-10_123_475" fill="white">
<path d="M497 304.971V287H515.844V304.971H497Z"/>
</mask>
<path d="M497 287V286H496V287H497ZM497 304.971H498V287H497H496V304.971H497ZM497 287V288H515.844V287V286H497V287Z" fill="#B8B8B8" mask="url(#path-30-inside-10_123_475)"/>
<mask id="path-32-inside-11_123_475" fill="white">
<path d="M823 455.029V473H804.156V455.029H823Z"/>
</mask>
<path d="M823 473V474H824V473H823ZM823 455.029H822V473H823H824V455.029H823ZM823 473V472H804.156V473V474H823V473Z" fill="#B8B8B8" mask="url(#path-32-inside-11_123_475)"/>
<mask id="path-34-inside-12_123_475" fill="white">
<path d="M515.844 473H497V455.029H515.844V473Z"/>
</mask>
<path d="M497 473H496V474H497V473ZM515.844 473V472H497V473V474H515.844V473ZM497 473H498V455.029H497H496V473H497Z" fill="#B8B8B8" mask="url(#path-34-inside-12_123_475)"/>
<rect width="307.155" height="168.029" transform="translate(1003.42 582.986)" fill="#1E1E1E"/>
<path d="M1113.39 674H1110.95V660.36H1128.61V662.46H1113.39V666.72H1128.23V668.68H1113.39V674ZM1132.09 659V674H1129.81V659H1132.09ZM1133.59 669.44V663.98H1135.87V669.14C1135.87 671.16 1137.11 672.3 1140.15 672.3C1141.83 672.3 1144.13 671.82 1146.59 671V663.98H1148.87V674H1146.89L1146.69 672.56C1144.55 673.46 1141.97 674.24 1139.43 674.24C1135.75 674.24 1133.59 672.88 1133.59 669.44ZM1151.86 669.04V665.86H1149.4V663.98H1151.9L1152.3 661.42H1154.16V663.98H1162.6V665.86H1154.16V668.86C1154.16 671.4 1155.02 672.28 1158.06 672.28C1159.88 672.28 1161.42 672 1162.78 671.7L1163.22 673.54C1161.8 673.9 1159.88 674.24 1157.88 674.24C1153.64 674.24 1151.86 672.84 1151.86 669.04ZM1165.31 669.04V665.86H1162.85V663.98H1165.35L1165.75 661.42H1167.61V663.98H1176.05V665.86H1167.61V668.86C1167.61 671.4 1168.47 672.28 1171.51 672.28C1173.33 672.28 1174.87 672 1176.23 671.7L1176.67 673.54C1175.25 673.9 1173.33 674.24 1171.33 674.24C1167.09 674.24 1165.31 672.84 1165.31 669.04ZM1185.38 672.4C1188.3 672.4 1190.76 671.96 1191.78 671.74L1192.26 673.46C1190.56 673.9 1187.76 674.24 1185.2 674.24C1179.72 674.24 1177.04 672.86 1177.04 668.98C1177.04 665.18 1179.94 663.74 1184.88 663.74C1189.42 663.74 1192.62 664.9 1192.62 668.46C1192.62 668.8 1192.58 669.36 1192.54 669.58H1179.28C1179.56 671.86 1181.42 672.4 1185.38 672.4ZM1184.8 665.36C1181.24 665.36 1179.52 666.08 1179.28 668.28H1190.38C1190.2 666.3 1188.9 665.36 1184.8 665.36ZM1193.88 674V663.98H1195.88L1196.08 666C1198.1 664.78 1200.72 663.74 1203.68 663.74V665.82C1201.02 665.82 1198.8 666.3 1196.16 667.56V674H1193.88Z" fill="white"/>
<mask id="path-37-inside-13_123_475" fill="white">
<path d="M1301.16 574H1320V591.971H1301.16V574Z"/>
</mask>
<path d="M1320 574H1321V573H1320V574ZM1301.16 574V575H1320V574V573H1301.16V574ZM1320 574H1319V591.971H1320H1321V574H1320Z" fill="#B8B8B8" mask="url(#path-37-inside-13_123_475)"/>
<mask id="path-39-inside-14_123_475" fill="white">
<path d="M994 591.972V574.001H1012.84V591.972H994Z"/>
</mask>
<path d="M994 574.001V573.001H993V574.001H994ZM994 591.972H995V574.001H994H993V591.972H994ZM994 574.001V575.001H1012.84V574.001V573.001H994V574.001Z" fill="#B8B8B8" mask="url(#path-39-inside-14_123_475)"/>
<mask id="path-41-inside-15_123_475" fill="white">
<path d="M1320 742.029V760H1301.16V742.029H1320Z"/>
</mask>
<path d="M1320 760V761H1321V760H1320ZM1320 742.029H1319V760H1320H1321V742.029H1320ZM1320 760V759H1301.16V760V761H1320V760Z" fill="#B8B8B8" mask="url(#path-41-inside-15_123_475)"/>
<mask id="path-43-inside-16_123_475" fill="white">
<path d="M1012.84 760H994V742.03H1012.84V760Z"/>
</mask>
<path d="M994 760H993V761H994V760ZM1012.84 760V759H994V760V761H1012.84V760ZM994 760H995V742.03H994H993V760H994Z" fill="#B8B8B8" mask="url(#path-43-inside-16_123_475)"/>
<rect width="307.155" height="168.029" transform="translate(9.42188 582.986)" fill="#1E1E1E"/>
<path d="M129.275 674H117.095V660.36H129.275C134.495 660.36 137.255 662.18 137.255 667.16C137.255 672.2 134.475 674 129.275 674ZM119.535 662.46V671.9H129.055C133.175 671.9 134.735 670.62 134.735 667.16C134.735 663.7 133.175 662.46 129.055 662.46H119.535ZM140.793 659.84V662.54H138.513V659.84H140.793ZM139.013 677.62H136.573C137.373 676.56 138.513 674.88 138.513 672.34V663.98H140.793V672.36C140.793 675.12 139.753 676.66 139.013 677.62ZM157.63 664.48V674H155.63L155.43 672.32C153.31 673.32 150.69 674.2 148.01 674.2C144.23 674.2 142.07 672.66 142.07 669.04C142.07 665.08 145.11 663.78 149.61 663.78C152.69 663.78 155.53 664.14 157.63 664.48ZM144.35 668.98C144.35 671.34 145.59 672.28 148.43 672.28C150.73 672.28 153.05 671.62 155.35 670.76V666.08C153.59 665.84 151.33 665.66 149.37 665.66C146.23 665.66 144.35 666.54 144.35 668.98ZM159.24 674V663.98H161.24L161.42 665.38C163.52 664.5 166.06 663.74 168.68 663.74C172.28 663.74 174.4 665.12 174.4 668.56V674H172.12V668.84C172.12 666.82 170.92 665.68 167.96 665.68C166.18 665.68 163.96 666.14 161.52 666.94V674H159.24ZM191.132 664.48V672.44C191.132 676.4 188.672 677.86 182.952 677.86C180.812 677.86 177.992 677.54 175.932 676.94L176.452 675.16C178.412 675.68 180.672 676.04 183.072 676.04C187.592 676.04 189.012 675 188.932 672.46L188.892 671.98C186.812 672.84 184.292 673.5 181.672 673.5C177.592 673.5 175.492 672.08 175.492 668.7C175.492 665 178.492 663.78 183.092 663.78C186.192 663.78 189.032 664.14 191.132 664.48ZM177.772 668.68C177.772 670.82 179.012 671.7 181.852 671.7C184.152 671.7 186.532 671.22 188.832 670.44V666.08C187.052 665.84 184.752 665.66 182.792 665.66C179.652 665.66 177.772 666.44 177.772 668.68ZM192.223 668.98C192.223 665.34 194.943 663.72 200.763 663.72C206.603 663.72 209.303 665.34 209.303 668.98C209.303 672.62 206.603 674.24 200.763 674.24C194.943 674.24 192.223 672.62 192.223 668.98ZM194.503 668.98C194.503 671.34 196.103 672.28 200.763 672.28C205.423 672.28 207.023 671.34 207.023 668.98C207.023 666.64 205.423 665.68 200.763 665.68C196.103 665.68 194.503 666.64 194.503 668.98Z" fill="white"/>
<mask id="path-46-inside-17_123_475" fill="white">
<path d="M307.156 574.001H326V591.972H307.156V574.001Z"/>
</mask>
<path d="M326 574.001H327V573.001H326V574.001ZM307.156 574.001V575.001H326V574.001V573.001H307.156V574.001ZM326 574.001H325V591.972H326H327V574.001H326Z" fill="#B8B8B8" mask="url(#path-46-inside-17_123_475)"/>
<mask id="path-48-inside-18_123_475" fill="white">
<path d="M0 591.972L0 574.001H18.8439L18.8439 591.972H0Z"/>
</mask>
<path d="M0 574.001L0 573.001H-1V574.001H0ZM0 591.972H1L1 574.001H0H-1L-1 591.972H0ZM0 574.001L0 575.001H18.8439V574.001V573.001H0L0 574.001Z" fill="#B8B8B8" mask="url(#path-48-inside-18_123_475)"/>
<mask id="path-50-inside-19_123_475" fill="white">
<path d="M326 742.03V760.001H307.156V742.03H326Z"/>
</mask>
<path d="M326 760.001V761.001H327V760.001H326ZM326 742.03H325V760.001H326H327V742.03H326ZM326 760.001V759.001H307.156V760.001V761.001H326V760.001Z" fill="#B8B8B8" mask="url(#path-50-inside-19_123_475)"/>
<mask id="path-52-inside-20_123_475" fill="white">
<path d="M18.8438 760.001H-0.000135422L-0.000135422 742.03H18.8437L18.8438 760.001Z"/>
</mask>
<path d="M-0.000135422 760.001H-1.00014V761.001H-0.000135422V760.001ZM18.8438 760.001V759.001H-0.000135422V760.001V761.001H18.8438V760.001ZM-0.000135422 760.001H0.999865L0.999865 742.03H-0.000135422H-1.00014L-1.00014 760.001H-0.000135422Z" fill="#B8B8B8" mask="url(#path-52-inside-20_123_475)"/>
</svg>
