<svg width="708" height="760" viewBox="0 0 708 760" fill="none" xmlns="http://www.w3.org/2000/svg">
<rect width="251.136" height="168.029" transform="translate(7.70337 8.98535)" fill="#1E1E1E"/>
<path d="M83.4799 99.9995V86.3595H96.6999C100.06 86.3595 101.96 87.6195 101.96 90.7795C101.96 94.0595 100.06 95.4195 96.6999 95.4195H85.9199V99.9995H83.4799ZM96.4999 88.4595H85.9199V93.3195H96.4999C98.5399 93.3195 99.4399 92.6195 99.4399 90.8995C99.4399 89.1195 98.5399 88.4595 96.4999 88.4595ZM102.706 94.4595V89.9795H104.986V94.1395C104.986 96.3595 106.246 97.2195 109.506 97.2195C111.786 97.2195 113.946 96.7995 116.066 96.1795V89.9795H118.346V98.2195C118.346 102.48 115.966 103.86 110.386 103.86C107.946 103.86 105.286 103.48 103.426 102.94L103.866 101.14C105.886 101.66 108.126 102.04 110.526 102.04C114.746 102.04 116.246 101.12 116.166 98.3995L116.106 97.7795C114.086 98.5195 111.526 99.1395 108.986 99.1395C104.546 99.1395 102.706 97.6795 102.706 94.4595ZM121.347 95.0395V91.8595H118.887V89.9795H121.387L121.787 87.4195H123.647V89.9795H132.087V91.8595H123.647V94.8595C123.647 97.3995 124.507 98.2795 127.547 98.2795C129.367 98.2795 130.907 97.9995 132.267 97.6995L132.707 99.5395C131.287 99.8995 129.367 100.24 127.367 100.24C123.127 100.24 121.347 98.8395 121.347 95.0395ZM133.476 99.9995V84.9995H135.756V91.2595C137.836 90.4195 140.356 89.7395 142.936 89.7395C146.516 89.7395 148.636 91.1195 148.636 94.5595V99.9995H146.356V94.8395C146.356 92.8195 145.156 91.6795 142.196 91.6795C140.416 91.6795 138.196 92.1395 135.756 92.9395V99.9995H133.476ZM149.729 94.9795C149.729 91.3395 152.449 89.7195 158.269 89.7195C164.109 89.7195 166.809 91.3395 166.809 94.9795C166.809 98.6195 164.109 100.24 158.269 100.24C152.449 100.24 149.729 98.6195 149.729 94.9795ZM152.009 94.9795C152.009 97.3395 153.609 98.2795 158.269 98.2795C162.929 98.2795 164.529 97.3395 164.529 94.9795C164.529 92.6395 162.929 91.6795 158.269 91.6795C153.609 91.6795 152.009 92.6395 152.009 94.9795ZM168.09 99.9995V89.9795H170.09L170.27 91.3795C172.37 90.4995 174.91 89.7395 177.53 89.7395C181.13 89.7395 183.25 91.1195 183.25 94.5595V99.9995H180.97V94.8395C180.97 92.8195 179.77 91.6795 176.81 91.6795C175.03 91.6795 172.81 92.1395 170.37 92.9395V99.9995H168.09Z" fill="white"/>
<mask id="path-2-inside-1_78_335" fill="white">
<path d="M251.136 0H266.543V17.971H251.136V0Z"/>
</mask>
<path d="M266.543 0H267.543V-1H266.543V0ZM251.136 0V1H266.543V0V-1H251.136V0ZM266.543 0H265.543V17.971H266.543H267.543V0H266.543Z" fill="#B8B8B8" mask="url(#path-2-inside-1_78_335)"/>
<mask id="path-4-inside-2_78_335" fill="white">
<path d="M0 17.9712L0 0.000219345H15.4071L15.4071 17.9712H0Z"/>
</mask>
<path d="M0 0.000219345L0 -0.999781H-1V0.000219345H0ZM0 17.9712H1L1 0.000219345H0H-1L-1 17.9712H0ZM0 0.000219345L0 1.00022H15.4071V0.000219345V-0.999781H0L0 0.000219345Z" fill="#B8B8B8" mask="url(#path-4-inside-2_78_335)"/>
<mask id="path-6-inside-3_78_335" fill="white">
<path d="M266.543 168.029V186H251.136V168.029H266.543Z"/>
</mask>
<path d="M266.543 186V187H267.543V186H266.543ZM266.543 168.029H265.543V186H266.543H267.543V168.029H266.543ZM266.543 186V185H251.136V186V187H266.543V186Z" fill="#B8B8B8" mask="url(#path-6-inside-3_78_335)"/>
<mask id="path-8-inside-4_78_335" fill="white">
<path d="M15.4072 186H0.000132561L0.000132561 168.029H15.4072L15.4072 186Z"/>
</mask>
<path d="M0.000132561 186H-0.999866V187H0.000132561V186ZM15.4072 186V185H0.000132561V186V187H15.4072V186ZM0.000132561 186H1.00013L1.00013 168.029H0.000132561H-0.999866L-0.999866 186H0.000132561Z" fill="#B8B8B8" mask="url(#path-8-inside-4_78_335)"/>
<rect width="251.136" height="168.029" transform="translate(449.16 8.98535)" fill="#1E1E1E"/>
<path d="M556.406 99.9995H544.226V86.3595H556.406C561.626 86.3595 564.386 88.1795 564.386 93.1595C564.386 98.1995 561.606 99.9995 556.406 99.9995ZM546.666 88.4595V97.8995H556.186C560.306 97.8995 561.866 96.6195 561.866 93.1595C561.866 89.6995 560.306 88.4595 556.186 88.4595H546.666ZM580.804 90.4795V99.9995H578.804L578.604 98.3195C576.484 99.3195 573.864 100.2 571.184 100.2C567.404 100.2 565.244 98.6595 565.244 95.0395C565.244 91.0795 568.284 89.7795 572.784 89.7795C575.864 89.7795 578.704 90.1395 580.804 90.4795ZM567.524 94.9795C567.524 97.3395 568.764 98.2795 571.604 98.2795C573.904 98.2795 576.224 97.6195 578.524 96.7595V92.0795C576.764 91.8395 574.504 91.6595 572.544 91.6595C569.404 91.6595 567.524 92.5395 567.524 94.9795ZM582.414 99.9995V89.9795H584.414L584.614 91.9995C586.634 90.7795 589.254 89.7395 592.214 89.7395V91.8195C589.554 91.8195 587.334 92.2995 584.694 93.5595V99.9995H582.414ZM594.781 95.0395V91.8595H592.321V89.9795H594.821L595.221 87.4195H597.081V89.9795H605.521V91.8595H597.081V94.8595C597.081 97.3995 597.941 98.2795 600.981 98.2795C602.801 98.2795 604.341 97.9995 605.701 97.6995L606.141 99.5395C604.721 99.8995 602.801 100.24 600.801 100.24C596.561 100.24 594.781 98.8395 594.781 95.0395Z" fill="white"/>
<mask id="path-11-inside-5_78_335" fill="white">
<path d="M692.592 0H707.999V17.971H692.592V0Z"/>
</mask>
<path d="M707.999 0H708.999V-1H707.999V0ZM692.592 0V1H707.999V0V-1H692.592V0ZM707.999 0H706.999V17.971H707.999H708.999V0H707.999Z" fill="#B8B8B8" mask="url(#path-11-inside-5_78_335)"/>
<mask id="path-13-inside-6_78_335" fill="white">
<path d="M441.456 17.9712V0.000219345H456.863V17.9712H441.456Z"/>
</mask>
<path d="M441.456 0.000219345V-0.999781H440.456V0.000219345H441.456ZM441.456 17.9712H442.456V0.000219345H441.456H440.456V17.9712H441.456ZM441.456 0.000219345V1.00022H456.863V0.000219345V-0.999781H441.456V0.000219345Z" fill="#B8B8B8" mask="url(#path-13-inside-6_78_335)"/>
<mask id="path-15-inside-7_78_335" fill="white">
<path d="M708 168.029V186H692.593V168.029H708Z"/>
</mask>
<path d="M708 186V187H709V186H708ZM708 168.029H707V186H708H709V168.029H708ZM708 186V185H692.593V186V187H708V186Z" fill="#B8B8B8" mask="url(#path-15-inside-7_78_335)"/>
<mask id="path-17-inside-8_78_335" fill="white">
<path d="M456.864 186H441.457V168.029H456.864V186Z"/>
</mask>
<path d="M441.457 186H440.457V187H441.457V186ZM456.864 186V185H441.457V186V187H456.864V186ZM441.457 186H442.457V168.029H441.457H440.457V186H441.457Z" fill="#B8B8B8" mask="url(#path-17-inside-8_78_335)"/>
<rect width="254.393" height="168.029" transform="translate(226.803 295.985)" fill="#C82D0B"/>
<path d="M294.183 387H291.743V373.36H309.403V375.46H294.183V379.72H309.023V381.68H294.183V387ZM310.501 382.44V376.98H312.781V382.14C312.781 384.16 314.021 385.3 317.061 385.3C318.741 385.3 321.041 384.82 323.501 384V376.98H325.781V387H323.801L323.601 385.56C321.461 386.46 318.881 387.24 316.341 387.24C312.661 387.24 310.501 385.88 310.501 382.44ZM329.652 372V387H327.372V372H329.652ZM333.61 372V387H331.33V372H333.61ZM355.351 384.36C355.351 386.6 353.531 387.24 348.651 387.24C345.811 387.24 343.191 386.9 341.271 386.52L341.671 384.96C343.751 385.34 346.211 385.64 348.811 385.64C352.211 385.64 353.191 385.44 353.191 384.34C353.191 383.24 352.231 383.06 349.891 382.88L345.331 382.6C342.511 382.42 341.071 381.8 341.071 379.64C341.071 377.26 343.491 376.72 348.211 376.72C350.051 376.72 352.811 377 354.611 377.28L354.271 378.84C352.031 378.5 349.891 378.3 347.731 378.3C344.351 378.3 343.231 378.54 343.231 379.62C343.231 380.7 344.151 380.82 345.571 380.92L350.331 381.24C353.691 381.44 355.351 382.12 355.351 384.36ZM357.822 382.04V378.86H355.362V376.98H357.862L358.262 374.42H360.122V376.98H368.562V378.86H360.122V381.86C360.122 384.4 360.982 385.28 364.022 385.28C365.842 385.28 367.382 385 368.742 384.7L369.182 386.54C367.762 386.9 365.842 387.24 363.842 387.24C359.602 387.24 357.822 385.84 357.822 382.04ZM385.111 377.48V387H383.111L382.911 385.32C380.791 386.32 378.171 387.2 375.491 387.2C371.711 387.2 369.551 385.66 369.551 382.04C369.551 378.08 372.591 376.78 377.091 376.78C380.171 376.78 383.011 377.14 385.111 377.48ZM371.831 381.98C371.831 384.34 373.071 385.28 375.911 385.28C378.211 385.28 380.531 384.62 382.831 383.76V379.08C381.071 378.84 378.811 378.66 376.851 378.66C373.711 378.66 371.831 379.54 371.831 381.98ZM386.321 381.96C386.321 378.24 388.881 376.74 395.021 376.74C397.501 376.74 399.801 377.06 401.441 377.46L400.961 379.32C399.601 379.02 397.661 378.7 394.721 378.7C390.301 378.7 388.601 379.46 388.601 381.96C388.601 384.48 390.301 385.26 394.721 385.26C397.661 385.26 399.601 384.94 400.961 384.64L401.441 386.5C399.801 386.9 397.641 387.22 395.021 387.22C388.881 387.22 386.321 385.7 386.321 381.96ZM404.99 372V380.68H408.57L414.35 376.98H417.53L410.59 381.66L417.79 387H414.61L408.47 382.56H404.99V387H402.71V372H404.99Z" fill="white"/>
<mask id="path-20-inside-9_78_335" fill="white">
<path d="M473.393 287H489V304.971H473.393V287Z"/>
</mask>
<path d="M489 287H490V286H489V287ZM473.393 287V288H489V287V286H473.393V287ZM489 287H488V304.971H489H490V287H489Z" fill="#B8B8B8" mask="url(#path-20-inside-9_78_335)"/>
<mask id="path-22-inside-10_78_335" fill="white">
<path d="M219 304.971V287H234.607V304.971H219Z"/>
</mask>
<path d="M219 287V286H218V287H219ZM219 304.971H220V287H219H218V304.971H219ZM219 287V288H234.607V287V286H219V287Z" fill="#B8B8B8" mask="url(#path-22-inside-10_78_335)"/>
<mask id="path-24-inside-11_78_335" fill="white">
<path d="M489 455.029V473H473.394V455.029H489Z"/>
</mask>
<path d="M489 473V474H490V473H489ZM489 455.029H488V473H489H490V455.029H489ZM489 473V472H473.394V473V474H489V473Z" fill="#B8B8B8" mask="url(#path-24-inside-11_78_335)"/>
<mask id="path-26-inside-12_78_335" fill="white">
<path d="M234.607 473H219V455.029H234.607V473Z"/>
</mask>
<path d="M219 473H218V474H219V473ZM234.607 473V472H219V473V474H234.607V473ZM219 473H220V455.029H219H218V473H219Z" fill="#B8B8B8" mask="url(#path-26-inside-12_78_335)"/>
<rect width="242.596" height="168.029" transform="translate(448.898 582.986)" fill="#1E1E1E"/>
<path d="M526.589 674H524.149V660.36H541.809V662.46H526.589V666.72H541.429V668.68H526.589V674ZM545.288 659V674H543.008V659H545.288ZM546.785 669.44V663.98H549.065V669.14C549.065 671.16 550.305 672.3 553.345 672.3C555.025 672.3 557.325 671.82 559.785 671V663.98H562.065V674H560.085L559.885 672.56C557.745 673.46 555.165 674.24 552.625 674.24C548.945 674.24 546.785 672.88 546.785 669.44ZM565.055 669.04V665.86H562.595V663.98H565.095L565.495 661.42H567.355V663.98H575.795V665.86H567.355V668.86C567.355 671.4 568.215 672.28 571.255 672.28C573.075 672.28 574.615 672 575.975 671.7L576.415 673.54C574.995 673.9 573.075 674.24 571.075 674.24C566.835 674.24 565.055 672.84 565.055 669.04ZM578.505 669.04V665.86H576.045V663.98H578.545L578.945 661.42H580.805V663.98H589.245V665.86H580.805V668.86C580.805 671.4 581.665 672.28 584.705 672.28C586.525 672.28 588.065 672 589.425 671.7L589.865 673.54C588.445 673.9 586.525 674.24 584.525 674.24C580.285 674.24 578.505 672.84 578.505 669.04ZM598.574 672.4C601.494 672.4 603.954 671.96 604.974 671.74L605.454 673.46C603.754 673.9 600.954 674.24 598.394 674.24C592.914 674.24 590.234 672.86 590.234 668.98C590.234 665.18 593.134 663.74 598.074 663.74C602.614 663.74 605.814 664.9 605.814 668.46C605.814 668.8 605.774 669.36 605.734 669.58H592.474C592.754 671.86 594.614 672.4 598.574 672.4ZM597.994 665.36C594.434 665.36 592.714 666.08 592.474 668.28H603.574C603.394 666.3 602.094 665.36 597.994 665.36ZM607.072 674V663.98H609.072L609.272 666C611.292 664.78 613.912 663.74 616.872 663.74V665.82C614.212 665.82 611.992 666.3 609.352 667.56V674H607.072Z" fill="white"/>
<mask id="path-29-inside-13_78_335" fill="white">
<path d="M684.052 574H698.935V591.971H684.052V574Z"/>
</mask>
<path d="M698.935 574H699.935V573H698.935V574ZM684.052 574V575H698.935V574V573H684.052V574ZM698.935 574H697.935V591.971H698.935H699.935V574H698.935Z" fill="#B8B8B8" mask="url(#path-29-inside-13_78_335)"/>
<mask id="path-31-inside-14_78_335" fill="white">
<path d="M441.456 591.972V574.001H456.339V591.972H441.456Z"/>
</mask>
<path d="M441.456 574.001V573.001H440.456V574.001H441.456ZM441.456 591.972H442.456V574.001H441.456H440.456V591.972H441.456ZM441.456 574.001V575.001H456.339V574.001V573.001H441.456V574.001Z" fill="#B8B8B8" mask="url(#path-31-inside-14_78_335)"/>
<mask id="path-33-inside-15_78_335" fill="white">
<path d="M698.936 742.029V760H684.053V742.029H698.936Z"/>
</mask>
<path d="M698.936 760V761H699.936V760H698.936ZM698.936 742.029H697.936V760H698.936H699.936V742.029H698.936ZM698.936 760V759H684.053V760V761H698.936V760Z" fill="#B8B8B8" mask="url(#path-33-inside-15_78_335)"/>
<mask id="path-35-inside-16_78_335" fill="white">
<path d="M456.34 760H441.457V742.03H456.34V760Z"/>
</mask>
<path d="M441.457 760H440.457V761H441.457V760ZM456.34 760V759H441.457V760V761H456.34V760ZM441.457 760H442.457V742.03H441.457H440.457V760H441.457Z" fill="#B8B8B8" mask="url(#path-35-inside-16_78_335)"/>
<rect width="251.136" height="168.029" transform="translate(7.70337 582.988)" fill="#1E1E1E"/>
<path d="M99.5466 674.002H87.3666V660.362H99.5466C104.767 660.362 107.527 662.182 107.527 667.162C107.527 672.202 104.747 674.002 99.5466 674.002ZM89.8066 662.462V671.902H99.3266C103.447 671.902 105.007 670.622 105.007 667.162C105.007 663.702 103.447 662.462 99.3266 662.462H89.8066ZM111.065 659.842V662.542H108.785V659.842H111.065ZM109.285 677.622H106.845C107.645 676.562 108.785 674.882 108.785 672.342V663.982H111.065V672.362C111.065 675.122 110.025 676.662 109.285 677.622ZM127.902 664.482V674.002H125.902L125.702 672.322C123.582 673.322 120.962 674.202 118.282 674.202C114.502 674.202 112.342 672.662 112.342 669.042C112.342 665.082 115.382 663.782 119.882 663.782C122.962 663.782 125.802 664.142 127.902 664.482ZM114.622 668.982C114.622 671.342 115.862 672.282 118.702 672.282C121.002 672.282 123.322 671.622 125.622 670.762V666.082C123.862 665.842 121.602 665.662 119.642 665.662C116.502 665.662 114.622 666.542 114.622 668.982ZM129.512 674.002V663.982H131.512L131.692 665.382C133.792 664.502 136.332 663.742 138.952 663.742C142.552 663.742 144.672 665.122 144.672 668.562V674.002H142.392V668.842C142.392 666.822 141.192 665.682 138.232 665.682C136.452 665.682 134.232 666.142 131.792 666.942V674.002H129.512ZM161.404 664.482V672.442C161.404 676.402 158.944 677.862 153.224 677.862C151.084 677.862 148.264 677.542 146.204 676.942L146.724 675.162C148.684 675.682 150.944 676.042 153.344 676.042C157.864 676.042 159.284 675.002 159.204 672.462L159.164 671.982C157.084 672.842 154.564 673.502 151.944 673.502C147.864 673.502 145.764 672.082 145.764 668.702C145.764 665.002 148.764 663.782 153.364 663.782C156.464 663.782 159.304 664.142 161.404 664.482ZM148.044 668.682C148.044 670.822 149.284 671.702 152.124 671.702C154.424 671.702 156.804 671.222 159.104 670.442V666.082C157.324 665.842 155.024 665.662 153.064 665.662C149.924 665.662 148.044 666.442 148.044 668.682ZM162.495 668.982C162.495 665.342 165.215 663.722 171.035 663.722C176.875 663.722 179.575 665.342 179.575 668.982C179.575 672.622 176.875 674.242 171.035 674.242C165.215 674.242 162.495 672.622 162.495 668.982ZM164.775 668.982C164.775 671.342 166.375 672.282 171.035 672.282C175.695 672.282 177.295 671.342 177.295 668.982C177.295 666.642 175.695 665.682 171.035 665.682C166.375 665.682 164.775 666.642 164.775 668.982Z" fill="white"/>
<mask id="path-38-inside-17_78_335" fill="white">
<path d="M251.136 574.003H266.543V591.974H251.136V574.003Z"/>
</mask>
<path d="M266.543 574.003H267.543V573.003H266.543V574.003ZM251.136 574.003V575.003H266.543V574.003V573.003H251.136V574.003ZM266.543 574.003H265.543V591.974H266.543H267.543V574.003H266.543Z" fill="#B8B8B8" mask="url(#path-38-inside-17_78_335)"/>
<mask id="path-40-inside-18_78_335" fill="white">
<path d="M0 591.974L0 574.003H15.4071L15.4071 591.974H0Z"/>
</mask>
<path d="M0 574.003L0 573.003H-1L-1 574.003H0ZM0 591.974H1L1 574.003H0H-1L-1 591.974H0ZM0 574.003L0 575.003H15.4071V574.003V573.003H0L0 574.003Z" fill="#B8B8B8" mask="url(#path-40-inside-18_78_335)"/>
<mask id="path-42-inside-19_78_335" fill="white">
<path d="M266.543 742.032V760.003H251.136V742.032H266.543Z"/>
</mask>
<path d="M266.543 760.003V761.003H267.543V760.003H266.543ZM266.543 742.032H265.543V760.003H266.543H267.543V742.032H266.543ZM266.543 760.003V759.003H251.136V760.003V761.003H266.543V760.003Z" fill="#B8B8B8" mask="url(#path-42-inside-19_78_335)"/>
<mask id="path-44-inside-20_78_335" fill="white">
<path d="M15.4072 760.003H0.000135422L0.000135422 742.032H15.4072L15.4072 760.003Z"/>
</mask>
<path d="M0.000135422 760.003H-0.999865V761.003H0.000135422V760.003ZM15.4072 760.003V759.003H0.000135422V760.003V761.003H15.4072V760.003ZM0.000135422 760.003H1.00014L1.00014 742.032H0.000135422H-0.999865L-0.999865 760.003H0.000135422Z" fill="#B8B8B8" mask="url(#path-44-inside-20_78_335)"/>
<path d="M489 378.5C488.167 378.5 487.5 379.167 487.5 380C487.5 380.833 488.167 381.5 489 381.5C489.834 381.5 490.5 380.833 490.5 380C490.5 379.167 489.834 378.5 489 378.5Z" fill="white"/>
<path d="M490.5 380H554.728C565.774 380 574.728 371.046 574.728 360V186M487.5 380C487.5 379.167 488.167 378.5 489 378.5C489.834 378.5 490.5 379.167 490.5 380C490.5 380.833 489.834 381.5 489 381.5C488.167 381.5 487.5 380.833 487.5 380Z" stroke="white"/>
<path d="M219 378.5C218.167 378.5 217.5 379.167 217.5 380C217.5 380.833 218.167 381.5 219 381.5C219.833 381.5 220.5 380.833 220.5 380C220.5 379.167 219.833 378.5 219 378.5Z" fill="white"/>
<path d="M217.5 380H153.272C142.226 380 133.272 371.046 133.272 360V186M217.5 380C217.5 379.167 218.167 378.5 219 378.5C219.833 378.5 220.5 379.167 220.5 380C220.5 380.833 219.833 381.5 219 381.5C218.167 381.5 217.5 380.833 217.5 380Z" stroke="white"/>
<path d="M219 378.5C218.167 378.5 217.5 379.167 217.5 380C217.5 380.833 218.167 381.5 219 381.5C219.833 381.5 220.5 380.833 220.5 380C220.5 379.167 219.833 378.5 219 378.5Z" fill="white"/>
<path d="M217.5 380H153.272C142.226 380 133.272 388.954 133.272 400V574.003M217.5 380C217.5 379.167 218.167 378.5 219 378.5C219.833 378.5 220.5 379.167 220.5 380C220.5 380.833 219.833 381.5 219 381.5C218.167 381.5 217.5 380.833 217.5 380Z" stroke="white"/>
<path d="M489 378.5C488.167 378.5 487.5 379.167 487.5 380C487.5 380.833 488.167 381.5 489 381.5C489.834 381.5 490.5 380.833 490.5 380C490.5 379.167 489.834 378.5 489 378.5Z" fill="white"/>
<path d="M490.5 380H550.196C561.242 380 570.196 388.954 570.196 400V574M487.5 380C487.5 379.167 488.167 378.5 489 378.5C489.834 378.5 490.5 379.167 490.5 380C490.5 380.833 489.834 381.5 489 381.5C488.167 381.5 487.5 380.833 487.5 380Z" stroke="white"/>
</svg>
