<svg width="1081" height="1087" viewBox="0 0 1081 1087" fill="none" xmlns="http://www.w3.org/2000/svg">
<path d="M632.818 391.85C718.588 453.34 789.996 519.071 836.12 575.589C859.191 603.859 875.86 629.732 884.867 651.545C893.912 673.452 895.01 690.697 887.923 702.281C880.834 713.866 865.737 719.5 843.574 719.033C821.506 718.567 792.995 712.049 759.946 700.086C693.875 676.168 610.103 630.645 524.334 569.154C438.565 507.664 367.157 441.933 321.033 385.416C297.961 357.145 281.292 331.272 272.285 309.459C263.24 287.552 262.142 270.306 269.23 258.722C276.318 247.138 291.415 241.504 313.578 241.971C335.646 242.436 364.158 248.955 397.207 260.919C463.277 284.836 547.05 330.359 632.818 391.85Z" stroke="black" stroke-width="4"/>
<path d="M588.988 463.485C674.757 524.976 746.166 590.707 792.29 647.225C815.361 675.495 832.03 701.368 841.036 723.181C850.081 745.088 851.18 762.332 844.092 773.917C837.004 785.501 821.907 791.136 799.743 790.668C777.675 790.203 749.164 783.685 716.115 771.722C650.045 747.804 566.272 702.28 480.503 640.79C394.734 579.3 323.326 513.569 277.202 457.051C254.131 428.781 237.461 402.907 228.455 381.095C219.41 359.187 218.311 341.942 225.399 330.358C232.488 318.773 247.585 313.14 269.748 313.607C291.816 314.072 320.328 320.591 353.376 332.554C419.447 356.472 503.219 401.995 588.988 463.485Z" stroke="black" stroke-width="4"/>
<path d="M556.114 517.211C641.883 578.702 713.292 644.433 759.416 700.95C782.487 729.221 799.156 755.094 808.162 776.907C817.207 798.814 818.306 816.058 811.218 827.643C804.13 839.227 789.033 844.862 766.869 844.394C744.801 843.929 716.29 837.411 683.241 825.447C617.171 801.53 533.398 756.006 447.629 694.516C361.86 633.026 290.452 567.295 244.328 510.777C221.257 482.507 204.587 456.633 195.581 434.821C186.536 412.913 185.437 395.668 192.525 384.084C199.614 372.499 214.711 366.866 236.874 367.333C258.942 367.798 287.454 374.316 320.502 386.28C386.573 410.198 470.345 455.721 556.114 517.211Z" stroke="black" stroke-width="4"/>
</svg>
