<svg width="303" height="169" viewBox="0 0 303 169" fill="none" xmlns="http://www.w3.org/2000/svg">
<rect width="285.485" height="152.672" transform="translate(8.7572 8.16406)" fill="#C82D0B"/>
<path d="M26.1772 44.1641V30.5241H39.3972C42.7572 30.5241 44.6572 31.7841 44.6572 34.9441C44.6572 38.2241 42.7572 39.5841 39.3972 39.5841H28.6172V44.1641H26.1772ZM39.1972 32.6241H28.6172V37.4841H39.1972C41.2372 37.4841 42.1372 36.7841 42.1372 35.0641C42.1372 33.2841 41.2372 32.6241 39.1972 32.6241ZM44.7344 39.1441C44.7344 35.5041 47.4544 33.8841 53.2744 33.8841C59.1144 33.8841 61.8144 35.5041 61.8144 39.1441C61.8144 42.7841 59.1144 44.4041 53.2744 44.4041C47.4544 44.4041 44.7344 42.7841 44.7344 39.1441ZM47.0144 39.1441C47.0144 41.5041 48.6144 42.4441 53.2744 42.4441C57.9344 42.4441 59.5344 41.5041 59.5344 39.1441C59.5344 36.8041 57.9344 35.8441 53.2744 35.8441C48.6144 35.8441 47.0144 36.8041 47.0144 39.1441ZM64.4155 39.2041V36.0241H61.9555V34.1441H64.4555L64.8555 31.5841H66.7155V34.1441H75.1555V36.0241H66.7155V39.0241C66.7155 41.5641 67.5755 42.4441 70.6155 42.4441C72.4355 42.4441 73.9755 42.1641 75.3355 41.8641L75.7755 43.7041C74.3555 44.0641 72.4355 44.4041 70.4355 44.4041C66.1955 44.4041 64.4155 43.0041 64.4155 39.2041ZM90.4249 41.5241C90.4249 43.7641 88.6049 44.4041 83.7249 44.4041C80.8849 44.4041 78.2649 44.0641 76.3449 43.6841L76.7449 42.1241C78.8249 42.5041 81.2849 42.8041 83.8849 42.8041C87.2849 42.8041 88.2649 42.6041 88.2649 41.5041C88.2649 40.4041 87.3049 40.2241 84.9649 40.0441L80.4049 39.7641C77.5849 39.5841 76.1449 38.9641 76.1449 36.8041C76.1449 34.4241 78.5649 33.8841 83.2849 33.8841C85.1249 33.8841 87.8849 34.1641 89.6849 34.4441L89.3449 36.0041C87.1049 35.6641 84.9649 35.4641 82.8049 35.4641C79.4249 35.4641 78.3049 35.7041 78.3049 36.7841C78.3049 37.8641 79.2249 37.9841 80.6449 38.0841L85.4049 38.4041C88.7649 38.6041 90.4249 39.2841 90.4249 41.5241ZM104.456 29.1641H106.736V44.1641H104.736L104.536 42.5041C102.456 43.4641 99.8963 44.3641 97.2763 44.3641C93.3163 44.3641 91.1763 42.8641 91.1763 39.2641C91.1763 35.2841 94.1563 33.9441 98.5563 33.9441C100.716 33.9441 102.756 34.1841 104.456 34.4841V29.1641ZM93.4563 39.2241C93.4563 41.5041 94.7163 42.4441 97.6163 42.4441C99.8763 42.4441 102.196 41.8241 104.456 41.0041V36.2841C102.696 36.0441 100.396 35.8241 98.3963 35.8241C95.2963 35.8241 93.4563 36.7241 93.4563 39.2241ZM123.584 34.6441V44.1641H121.584L121.384 42.4841C119.264 43.4841 116.644 44.3641 113.964 44.3641C110.184 44.3641 108.024 42.8241 108.024 39.2041C108.024 35.2441 111.064 33.9441 115.564 33.9441C118.644 33.9441 121.484 34.3041 123.584 34.6441ZM110.304 39.1441C110.304 41.5041 111.544 42.4441 114.384 42.4441C116.684 42.4441 119.004 41.7841 121.304 40.9241V36.2441C119.544 36.0041 117.284 35.8241 115.324 35.8241C112.184 35.8241 110.304 36.7041 110.304 39.1441ZM125.194 44.1641V34.1441H127.194L127.374 35.5241C129.334 34.6641 131.594 33.9041 133.874 33.9041C135.994 33.9041 137.534 34.4441 138.414 35.6841C140.534 34.7441 143.074 33.9041 145.614 33.9041C148.994 33.9041 150.954 35.2841 150.954 38.7241V44.1641H148.674V39.0041C148.674 36.9841 147.574 35.8441 144.874 35.8441C143.274 35.8441 141.294 36.2641 139.014 37.0441C139.154 37.5241 139.214 38.0841 139.214 38.7241V44.1641H136.934V39.0041C136.934 36.9841 135.834 35.8441 133.134 35.8441C131.574 35.8441 129.674 36.3241 127.474 37.0841V44.1641H125.194ZM152.089 46.1441L152.269 44.9841C152.489 45.0041 152.689 45.0441 152.869 45.0441C153.269 45.0441 153.389 44.9441 153.389 44.6241V44.1641H152.369V40.8641H154.729V44.7241C154.729 45.7241 154.149 46.2641 152.969 46.2641C152.669 46.2641 152.349 46.2041 152.089 46.1441ZM25.7772 63.3441C25.7772 58.6041 28.7572 56.3241 35.8372 56.3241C38.9972 56.3241 42.4572 56.8641 45.0372 57.5041L44.5772 59.5641C42.2572 59.0641 38.9372 58.4441 35.6772 58.4441C29.9772 58.4441 28.2172 60.0241 28.2172 63.3441C28.2172 66.6641 29.9772 68.2641 35.6772 68.2641C38.1172 68.2641 40.6572 67.8641 42.5172 67.5041V63.1441H45.0372V69.2041C42.4572 69.8441 38.9972 70.3841 35.8372 70.3841C28.7572 70.3841 25.7772 68.1041 25.7772 63.3441ZM54.4611 68.5641C57.3811 68.5641 59.8411 68.1241 60.8611 67.9041L61.3411 69.6241C59.6411 70.0641 56.8411 70.4041 54.2811 70.4041C48.8011 70.4041 46.1211 69.0241 46.1211 65.1441C46.1211 61.3441 49.0211 59.9041 53.9611 59.9041C58.5011 59.9041 61.7011 61.0641 61.7011 64.6241C61.7011 64.9641 61.6611 65.5241 61.6211 65.7441H48.3611C48.6411 68.0241 50.5011 68.5641 54.4611 68.5641ZM53.8811 61.5241C50.3211 61.5241 48.6011 62.2441 48.3611 64.4441H59.4611C59.2811 62.4641 57.9811 61.5241 53.8811 61.5241ZM62.9588 70.1641V60.1441H64.9588L65.1588 62.1641C67.1788 60.9441 69.7988 59.9041 72.7588 59.9041V61.9841C70.0988 61.9841 67.8788 62.4641 65.2388 63.7241V70.1641H62.9588ZM73.8105 70.1641V60.1441H75.8105L75.9905 61.5241C77.9505 60.6641 80.2105 59.9041 82.4905 59.9041C84.6105 59.9041 86.1505 60.4441 87.0305 61.6841C89.1505 60.7441 91.6905 59.9041 94.2305 59.9041C97.6105 59.9041 99.5705 61.2841 99.5705 64.7241V70.1641H97.2905V65.0041C97.2905 62.9841 96.1905 61.8441 93.4905 61.8441C91.8905 61.8441 89.9105 62.2641 87.6305 63.0441C87.7705 63.5241 87.8305 64.0841 87.8305 64.7241V70.1641H85.5505V65.0041C85.5505 62.9841 84.4505 61.8441 81.7505 61.8441C80.1905 61.8441 78.2905 62.3241 76.0905 63.0841V70.1641H73.8105ZM116.228 60.6441V70.1641H114.228L114.028 68.4841C111.908 69.4841 109.288 70.3641 106.608 70.3641C102.828 70.3641 100.668 68.8241 100.668 65.2041C100.668 61.2441 103.708 59.9441 108.208 59.9441C111.288 59.9441 114.128 60.3041 116.228 60.6441ZM102.948 65.1441C102.948 67.5041 104.188 68.4441 107.028 68.4441C109.328 68.4441 111.648 67.7841 113.948 66.9241V62.2441C112.188 62.0041 109.928 61.8241 107.968 61.8241C104.828 61.8241 102.948 62.7041 102.948 65.1441ZM117.838 70.1641V60.1441H119.838L120.018 61.5441C122.118 60.6641 124.658 59.9041 127.278 59.9041C130.878 59.9041 132.998 61.2841 132.998 64.7241V70.1641H130.718V65.0041C130.718 62.9841 129.518 61.8441 126.558 61.8441C124.778 61.8441 122.558 62.3041 120.118 63.1041V70.1641H117.838ZM134.311 64.6241V60.1441H136.591V64.3041C136.591 66.5241 137.851 67.3841 141.111 67.3841C143.391 67.3841 145.551 66.9641 147.671 66.3441V60.1441H149.951V68.3841C149.951 72.6441 147.571 74.0241 141.991 74.0241C139.551 74.0241 136.891 73.6441 135.031 73.1041L135.471 71.3041C137.491 71.8241 139.731 72.2041 142.131 72.2041C146.351 72.2041 147.851 71.2841 147.771 68.5641L147.711 67.9441C145.691 68.6841 143.131 69.3041 140.591 69.3041C136.151 69.3041 134.311 67.8441 134.311 64.6241ZM177.375 65.8441H157.375V64.0041H177.375V65.8441ZM41.6172 86.8641C41.6172 84.8641 39.4372 84.3841 35.5372 84.3841C32.2372 84.3841 28.9572 84.8441 26.3972 85.3041L26.0172 83.2241C28.7372 82.7041 32.3372 82.2841 35.1572 82.2841C41.0772 82.2841 44.0572 83.3641 44.0572 86.5241C44.0572 89.1641 42.0772 90.1041 38.6772 91.2641L30.4772 94.3041C32.1372 94.1841 34.1772 94.1041 35.7172 94.1041H44.0972V96.1641H26.0972V93.9841L38.7972 89.4641C40.7372 88.6841 41.6172 88.1641 41.6172 86.8641ZM66.7789 89.3441C66.7789 94.3841 62.9589 96.4041 56.2589 96.4041C49.5589 96.4041 45.7389 94.3841 45.7389 89.3441C45.7389 84.3041 49.5589 82.2841 56.2589 82.2841C62.9589 82.2841 66.7789 84.3041 66.7789 89.3441ZM64.3389 89.3441C64.3389 85.6441 61.5389 84.4041 56.2589 84.4041C50.9789 84.4041 48.1789 85.6441 48.1789 89.3441C48.1789 93.0441 50.9789 94.2841 56.2589 94.2841C61.5389 94.2841 64.3389 93.0441 64.3389 89.3441ZM83.8675 86.8641C83.8675 84.8641 81.6875 84.3841 77.7875 84.3841C74.4875 84.3841 71.2075 84.8441 68.6475 85.3041L68.2675 83.2241C70.9875 82.7041 74.5875 82.2841 77.4075 82.2841C83.3275 82.2841 86.3075 83.3641 86.3075 86.5241C86.3075 89.1641 84.3275 90.1041 80.9275 91.2641L72.7275 94.3041C74.3875 94.1841 76.4275 94.1041 77.9675 94.1041H86.3475V96.1641H68.3475V93.9841L81.0475 89.4641C82.9875 88.6841 83.8675 88.1641 83.8675 86.8641ZM95.2292 96.1641H92.7892V86.7841C92.7892 86.1441 92.8292 85.4641 92.8692 84.9441L87.6692 86.7441V84.6041L92.9492 82.5241H95.2292V96.1641ZM107.835 91.8441H97.8355V90.0041H107.835V91.8441ZM123.356 86.8641C123.356 84.8641 121.176 84.3841 117.276 84.3841C113.976 84.3841 110.696 84.8441 108.136 85.3041L107.756 83.2241C110.476 82.7041 114.076 82.2841 116.896 82.2841C122.816 82.2841 125.796 83.3641 125.796 86.5241C125.796 89.1641 123.816 90.1041 120.416 91.2641L112.216 94.3041C113.876 94.1841 115.916 94.1041 117.456 94.1041H125.836V96.1641H107.836V93.9841L120.536 89.4641C122.476 88.6841 123.356 88.1641 123.356 86.8641ZM148.518 89.3441C148.518 94.3841 144.698 96.4041 137.998 96.4041C131.298 96.4041 127.478 94.3841 127.478 89.3441C127.478 84.3041 131.298 82.2841 137.998 82.2841C144.698 82.2841 148.518 84.3041 148.518 89.3441ZM146.078 89.3441C146.078 85.6441 143.278 84.4041 137.998 84.4041C132.718 84.4041 129.918 85.6441 129.918 89.3441C129.918 93.0441 132.718 94.2841 137.998 94.2841C143.278 94.2841 146.078 93.0441 146.078 89.3441ZM165.607 86.8641C165.607 84.8641 163.427 84.3841 159.527 84.3841C156.227 84.3841 152.947 84.8441 150.387 85.3041L150.007 83.2241C152.727 82.7041 156.327 82.2841 159.147 82.2841C165.067 82.2841 168.047 83.3641 168.047 86.5241C168.047 89.1641 166.067 90.1041 162.667 91.2641L154.467 94.3041C156.127 94.1841 158.167 94.1041 159.707 94.1041H168.087V96.1641H150.087V93.9841L162.787 89.4641C164.727 88.6841 165.607 88.1641 165.607 86.8641ZM186.788 84.4841H173.288L172.608 88.0241L180.348 88.0641C185.308 88.1041 187.748 88.9441 187.748 92.0841C187.748 95.0441 185.948 96.4041 178.528 96.4041C175.668 96.4041 172.148 96.1641 169.528 95.6641L169.908 93.7441C172.208 94.1441 175.448 94.4441 178.828 94.4441C184.208 94.4441 185.388 93.7441 185.388 92.1041C185.388 90.3241 183.848 89.8641 180.088 89.8441L170.268 89.7641L170.048 89.5641L171.428 82.5241H186.788V84.4841Z" fill="white"/>
<mask id="path-2-inside-1_67_88" fill="white">
<path d="M285.485 0H303V16.3285H285.485V0Z"/>
</mask>
<path d="M303 0H304V-1H303V0ZM285.485 0V1H303V0V-1H285.485V0ZM303 0H302V16.3285H303H304V0H303Z" fill="#B8B8B8" mask="url(#path-2-inside-1_67_88)"/>
<mask id="path-4-inside-2_67_88" fill="white">
<path d="M0 16.3286L0 0.000102997L17.5144 0.000102997L17.5144 16.3286L0 16.3286Z"/>
</mask>
<path d="M0 0.000102997L0 -0.999897H-1L-1 0.000102997H0ZM0 16.3286H1L1 0.000102997H0H-1L-1 16.3286H0ZM0 0.000102997L0 1.0001L17.5144 1.0001V0.000102997V-0.999897L0 -0.999897L0 0.000102997Z" fill="#B8B8B8" mask="url(#path-4-inside-2_67_88)"/>
<mask id="path-6-inside-3_67_88" fill="white">
<path d="M303 152.672V169H285.486V152.672H303Z"/>
</mask>
<path d="M303 169V170H304V169H303ZM303 152.672H302V169H303H304V152.672H303ZM303 169V168H285.486V169V170H303V169Z" fill="#B8B8B8" mask="url(#path-6-inside-3_67_88)"/>
<mask id="path-8-inside-4_67_88" fill="white">
<path d="M17.5145 169H0.000118256L0.000118256 152.672H17.5145L17.5145 169Z"/>
</mask>
<path d="M0.000118256 169H-0.999882V170H0.000118256V169ZM17.5145 169V168H0.000118256V169V170H17.5145V169ZM0.000118256 169H1.00012L1.00012 152.672H0.000118256H-0.999882L-0.999882 169H0.000118256Z" fill="#B8B8B8" mask="url(#path-8-inside-4_67_88)"/>
</svg>
